<?xml version="1.0" encoding="utf-8"?>
<!-- Generator: Adobe Illustrator 19.2.0, SVG Export Plug-In . SVG Version: 6.00 Build 0)  -->
<svg version="1.1" id="Layer_1" xmlns="http://www.w3.org/2000/svg" xmlns:xlink="http://www.w3.org/1999/xlink" x="0px" y="0px"
	 viewBox="0 0 257 93.9" style="enable-background:new 0 0 257 93.9;" xml:space="preserve">
<style type="text/css">
	.st0{clip-path:url(#SVGID_2_);fill:#FFFFFF;}
	.st1{clip-path:url(#SVGID_2_);}
	.st2{clip-path:url(#SVGID_2_);fill:#148DC4;}
	.st3{clip-path:url(#SVGID_2_);fill:#1FBAED;}
	.st4{clip-path:url(#SVGID_2_);fill:#2C346E;}
</style>
<g>
	<defs>
		<rect id="SVGID_1_" y="0" width="257" height="93.9"/>
	</defs>
	<clipPath id="SVGID_2_">
		<use xlink:href="#SVGID_1_"  style="overflow:visible;"/>
	</clipPath>
	<path class="st0" d="M257,54.6c-0.1-1.2-0.9-2.2-2-2.7c-0.6-0.2-1.6-0.7-13.5-0.5c-0.3-0.8-0.9-1.4-1.8-1.8
		c-0.6-0.2-2.4-1-24.7-0.3c-5-0.4-12-4.3-14.3-5.8c-0.1,0-0.1-0.1-0.2-0.1C188.5,37,162,31.6,157.3,30.7c-3.7-2.7-9.9-5.7-10.2-5.9
		c-0.2-0.1-0.5-0.2-0.7-0.2c-3.6-0.8-12.6-1.8-18.5-2.5c0.7-0.6,1.1-1.4,1.2-2.2c0.3-2-1-3.9-2.4-4.6c-0.7-0.3-1.1-0.6-8.1-0.4
		l-1.9-2.5c1.2-0.5,2-1.4,2.2-2.7c0.3-1.6-0.6-3.1-2.4-4.2c-0.5-0.3-1-0.5-1.6-0.5h-3.1c-3.1-4.4-4.1-4.7-4.9-4.9
		c-0.9-0.3-2.7-0.3-5.4-0.1c-1,0.1-1.9,0.6-2.4,1.5c-0.3,0.5-0.4,1.1-0.4,1.6c-2.3,0.3-4,0.7-4.1,0.7c-1.1,0.2-2,1.1-2.3,2.1
		c-1,0-2,0-3.2,0.1c-1.6,0-2.9,1.4-2.9,3V11c0,0.4,0.1,0.8,0.2,1.2c-0.2,0.4-0.2,0.8-0.2,1.2v1.9c0,1.6,1.3,3,3,3l4.7,0
		c0,1.3,0.9,2.5,2.1,2.9c0.4,0.1,1.4,0.5,10.5,0.5c-1.9,1.8-4,4.1-5.4,5.5c-10.4,0.3-81.7,3.2-84.9,3.2c-1.9,0-4,0.2-4.9,1.5
		c-0.5,0.7-0.6,1.5-0.3,2.3c0.3,0.9,1.2,1.5,2.2,1.4c0.1,0,3,0.6,7.1,0.5c-4.2,2.1-8,4.3-11.6,6.9c-2.8,2.1-5.7,4.5-7.6,8.2
		c-1.8,3.6-1.5,7.3,0.8,10.4c2.2,2.9,5.8,4.1,9.7,3.1c0.5-0.1,1.1-0.3,1.7-0.5l1.2-0.3c0.8-0.2,1.5-0.8,1.9-1.5l1-2
		c0.4-0.8,0.4-1.7,0.1-2.6l-0.2-0.4c-0.5-1.2-1.4-2.5-3-3.2c0.7-0.7,1.6-1.3,2.5-1.9c3.9-2.9,8.3-5,12.1-6.7
		c3.8-1.7,7.9-3.3,12.1-3.5c0.3,0,0.6,0,0.8,0c0,0.2-0.1,0.4-0.1,0.5c-0.5,2.2-1.7,4.5-2.9,6.6l-0.2,0.4c-3.5,6.5-7.8,12.7-12,18.7
		l-0.2,0.3c-0.4,0.5-0.8,1.1-1.2,1.6c-0.8,1-1.5,2.1-2.3,3.3c-1.4,2.2-1.6,4.6-0.6,6.6c1,2.1,3.1,3.3,5.7,3.5
		c2.4,0.2,4.4-0.7,6.2-2.4c3.1-3,5.8-5.7,8.3-8.1c1-0.9,1.9-1.8,2.9-2.7c0,0.7,0,1.3,0,1.9c0,0.4,0,0.7,0,1.1c0,2.7,0.9,5,2.6,6.8
		c-1.1-0.1-2.3,0.4-2.9,1.4c-0.7,1.3-0.5,2.9,0.7,3.8c13.3,11.1,33.6,5.5,48.5,1.5c1.4-0.4,2.7-0.7,3.9-1.1c0.6,1,1.4,1.9,2.4,2.6
		c0.9,0.6,2,1.3,3.4,1.8c4.7,1.7,9.6,1.4,14.5-0.8c1.3-0.6,2.5-1.5,3.6-2.8c0.2-0.3,0.4-0.5,0.6-0.8c4.7,1,8.6,2.2,10.9,2.9
		c0.6,0.2,1.1,0.3,1.4,0.4c0.3,0.1,0.8,0.2,1.4,0.4c3.8,1.2,12.6,4.1,22.3,4.1c5.5,0,11.2-0.9,16.6-3.4c14.4-6.8,30.8-4.3,31-4.3
		c1.2,0.2,20.3-15.9,23.7-19.2c1.4-1.4,2.7-2.7,3.8-3.8c0.1,0.7,0.1,1.6-0.1,2.7c-0.3,1.4-4.1,6.7-8.4,11.5c-1,1.1-1,2.8,0,3.9
		c0.6,0.7,1.4,1.1,2.3,1.1c0.6,0,1.1-0.2,1.6-0.5c7.1-4.5,14.7-11.7,17.6-14.6C257.3,57.6,257.1,55.8,257,54.6 M84.4,35.6
		c-1.9,0.7-2.9,2.4-3.3,3.1l-0.3,0.5c-0.5,0.9-0.6,2-0.1,2.9l0.3,0.5c0.1,0.1,0.1,0.3,0.2,0.5c0.2,0.4,0.4,0.9,0.7,1.3
		c0.5,0.8,0.6,1.5,0.6,2.3c-0.1,1.3-0.5,2.6-1.4,4.4c-1.7,3.6-4.4,6.7-7,9.6c-3.1,3.4-7,6.6-11.8,9.7c-1.3,0.9-2.7,1.7-4.2,2
		c0.2-3.5,1.4-6.9,3.6-10.9l0.2-0.3c1-1.8,2-3.7,3.2-5.3c1.2-1.8,1.6-4,1.1-6.1c-0.6-2.3-2.1-4.2-4.2-5.2c-2.2-1.2-4.8-0.9-6.7,0.7
		c-0.7,0.6-1.2,1.2-1.7,1.7l-0.2,0.2c0.2-0.9,0.5-1.8,0.6-2.7c0.7-3.6,0.2-6.4-1.6-8.7C62.3,35.6,73.4,35.5,84.4,35.6 M180.9,51.6
		c-0.8,0-1.5,0-2.3,0.1c-0.8-0.6-1.8-1.1-2.8-1.5c-0.9-0.3-1.9-0.4-2.8-0.4c-1.6,0-3.1,0.4-4.8,1.2c-0.7,0.3-1.4,0.7-2.2,1.1
		c-2.7,0.1-5.3,0.1-8,0.2v-3.6l3.4-4.8c0.2-0.2,0.3-0.5,0.4-0.8C170.1,45.8,176.5,49,180.9,51.6 M146.6,69.1l0.3-0.3
		c0.3-0.3,0.5-0.5,0.8-0.8c0.4,0,0.8,0,1.1,0c0.6,0,1.2-0.1,1.8-0.3c-0.4,0.9-0.7,1.8-0.9,2.8c-2.1,0.5-4.1,1-6,1.5
		C144.6,71.1,145.6,70.1,146.6,69.1 M144.5,39c-0.6,0-1.2,0.2-1.6,0.5c-0.5-0.3-1-0.5-1.6-0.5h-3.5c-1,0-2,0.5-2.5,1.4
		c-0.5-0.9-1.5-1.4-2.5-1.4h-3.1c-1.2,0-2.4,0.8-2.8,1.9l-2.5,6.5h-0.1V42c0-1.7-1.3-3-3-3h-2.8c-1.2,0-2.2,0.7-2.7,1.6
		c-0.5-1-1.5-1.6-2.7-1.6h-1.3v-0.7v0c0-0.2,0.1-0.4,0.1-0.6v-0.8c0-0.3-0.1-0.6-0.1-0.8c6.4,0.2,12.5,0.5,17.8,0.8
		c6.1,0.4,11.8,1.2,17,2.2H144.5z M95.5,39.7V40c-0.6,0.3-1.1,0.8-1.6,1.2c0,0,0,0,0,0c-0.9-2.1-2.3-3.8-4.3-4.9
		c-0.3-0.2-0.8-0.4-1.3-0.6c2.2,0,4.5,0,6.7,0.1c-0.2,0.4-0.2,0.8-0.2,1.2v0.8C94.7,38.5,95,39.2,95.5,39.7 M69.6,79.6
		c3.4-2,6.4-4.4,8.9-6.5c4.9-4.2,9.1-9,12.4-14.1c0-0.1,0.1-0.1,0.1-0.2c0.5,1,1.4,1.7,2.5,1.8c0.1,0,0.2,0,0.6,0
		c-1.7,1.2-3.4,2.6-5,4.1c-2.1,1.9-3.6,3.7-4.8,5.6c-0.5,0.8-1.7,2.9-1.8,5.7c-1.7,0.5-3.3,1.1-5,1.7c-2,0.7-4,1.4-6.2,2.1
		C70.1,80,69,80.2,68,80.5C68.5,80.2,69.1,79.9,69.6,79.6 M116,69.4c1-1.3,2-2.5,3-3.8c0.6-0.7,1.1-1.4,1.7-2.1
		c0.8-1,1.3-1.9,1.5-2.9c1.5,0,3.1,0,4.7,0c-0.8,1-1.6,1.9-2.2,2.8c-3,3.8-4.9,7.3-6.1,11c-1.9-0.2-3.6-0.6-5.4-1.1
		C114,72.1,114.9,70.8,116,69.4 M206.2,79.1c-4.8-2.6-9.8-4-14.7-4.5c-0.3-0.5-0.7-1-1.2-1.3c-0.4-0.2-7.4-4.1-18.4-5.1
		c1.9-0.7,3.8-1.5,5.6-2.6c2.1-1.2,3.4-2.9,4.1-4.8c16.9,0,30.4,0,33.4,0c1.4,0.9,1.1,3.4,0.8,4.9C215.5,67.7,210.6,74.1,206.2,79.1
		"/>
	<path class="st1" d="M100.1,47h5.6c0,0.6,0,1.1-0.1,1.6c0,0.5-0.1,0.9-0.3,1.3c-0.2,0.6-0.5,1.1-0.8,1.5c-0.3,0.4-0.7,0.8-1.2,1.1
		c-0.5,0.3-1,0.5-1.5,0.7c-0.6,0.2-1.1,0.2-1.7,0.2c-0.8,0-1.6-0.1-2.3-0.4s-1.3-0.7-1.8-1.2c-0.5-0.5-0.9-1.1-1.2-1.8
		c-0.3-0.7-0.4-1.5-0.4-2.3c0-0.8,0.1-1.6,0.4-2.3s0.7-1.3,1.2-1.8c0.5-0.5,1.1-0.9,1.8-1.2c0.7-0.3,1.5-0.4,2.4-0.4
		c1.1,0,2.1,0.2,3,0.7c0.8,0.5,1.5,1.2,2,2.3l-2.7,1.1c-0.2-0.6-0.6-1-1-1.3c-0.4-0.3-0.8-0.4-1.4-0.4c-0.4,0-0.8,0.1-1.1,0.2
		c-0.3,0.2-0.6,0.4-0.9,0.7c-0.2,0.3-0.4,0.6-0.6,1c-0.1,0.4-0.2,0.9-0.2,1.4c0,0.5,0.1,0.9,0.2,1.3c0.1,0.4,0.3,0.7,0.5,1
		s0.5,0.5,0.9,0.7c0.4,0.2,0.8,0.2,1.2,0.2c0.3,0,0.5,0,0.8-0.1c0.3-0.1,0.5-0.2,0.7-0.3c0.2-0.1,0.4-0.3,0.5-0.5
		c0.1-0.2,0.2-0.5,0.3-0.8h-2.3V47z"/>
	<path class="st1" d="M113.7,51.2h-4l-0.6,1.9h-3l4.1-10.8h3.1l4.1,10.8h-3L113.7,51.2z M112.9,49.1l-1.3-3.6l-1.3,3.6H112.9z"/>
	<polygon class="st1" points="121.3,42.3 121.3,50.7 124.7,50.7 124.7,53.1 118.5,53.1 118.5,42.3 	"/>
	<path class="st1" d="M133.2,51.2h-4l-0.6,1.9h-3l4.1-10.8h3.1l4.1,10.8h-3L133.2,51.2z M132.4,49.1l-1.3-3.6l-1.3,3.6H132.4z"/>
	<polygon class="st1" points="141.1,47.3 137.8,42.3 141.2,42.3 142.7,45.1 144.5,42.3 148,42.3 144.4,47.3 148.4,53.1 145,53.1 
		142.8,49.6 140.3,53.1 136.9,53.1 	"/>
	<polygon class="st1" points="152.1,47.9 148.2,42.3 151.6,42.3 153.6,45.2 155.5,42.3 158.9,42.3 154.9,47.9 154.9,53.1 
		152.1,53.1 	"/>
	<polygon class="st1" points="99.5,38 99.5,40.9 98.5,40.9 98.5,38 97.7,38 97.7,37.1 100.3,37.1 100.3,38 	"/>
	<polygon class="st1" points="102.7,38.6 104.1,38.6 104.1,37.1 105.1,37.1 105.1,40.9 104.1,40.9 104.1,39.3 102.7,39.3 
		102.7,40.9 101.7,40.9 101.7,37.1 102.7,37.1 	"/>
	<polygon class="st1" points="109,38 107.8,38 107.8,38.6 108.9,38.6 108.9,39.4 107.8,39.4 107.8,40.1 109,40.1 109,40.9 
		106.9,40.9 106.9,37.1 109,37.1 	"/>
	<path class="st2" d="M47.9,83.5c0,0,9.6,3.8,24.2-0.8S96,72,120.4,81s41.2,0.9,49.1-1.4s25-4.6,37.6,3.9c0,0-17.2-2.8-32.8,4.5
		s-34.4-0.1-38.2-1.2s-21.8-7.4-35.2-4.2S62.3,95.5,47.9,83.5"/>
	<path class="st3" d="M188.8,76.1c0,0-15-8.6-36-3s-31.6,5.9-40.6,3.4c0,0,16.4,8,30.4,7.2S173.8,73,188.8,76.1"/>
	<path class="st1" d="M102.5,30.5c0,0,7-7.5,8.8-8.7l-1-2.8c0,0-12.1,0-13.2-0.4s10.9-1.2,12.1-1.2c0,0-4.8-9.9-5.1-10
		S97,7,95.3,7.1c0,0,3.6-0.8,7.8-1.1l-1.2-2.6c0,0,3.5-0.2,4.4,0s4.1,5,4.1,5h4.6c0,0,2,1.2,0.5,1.6s-4.4,0.2-4.4,0.2l6.1,8
		c0,0,7.8-0.2,8.2,0s1.5,1.9-0.1,2.1s-6.4,0.2-6.4,0.2l3.4,4.1c0,0,18.2,1.9,23.5,3c0,0,6.9,3.4,10.2,6c0,0,30.4,5.8,43.1,12.6
		c0,0,9,5.8,15.9,6.2c0,0,21.8-0.6,23.6,0.1S221.5,73.2,208,81.9c0,0,10-11.2,10.8-15.2s0-7.4-3.1-8.5c0,0-119.1-0.1-121.9-0.4
		s58.9-2.2,96.5-3.1c0,0-20.1-17.9-60.4-20.5S13.5,33.6,13.5,33.6s-0.4-1,3.1-1S102.5,30.5,102.5,30.5"/>
	<path class="st1" d="M235.6,60.1c1.7,1.3,2,3.7,1.5,6.6c-0.6,3.4-9.1,12.9-9.1,12.9c11.4-7.3,27.5-24,25.9-24.6
		c-0.9-0.4-8.5-0.3-13.9-0.3L235.6,60.1z"/>
	<path class="st4" d="M104.5,11.4c0,0-1.1-1.8-1.9-2s-13.4,0-13.4,0v1.9L104.5,11.4z"/>
	<path class="st4" d="M106.5,15.6c0,0-1.1-1.8-1.9-2s-15.4,0-15.4,0v1.9L106.5,15.6z"/>
	<path class="st0" d="M91.8,45.1c-0.3-2.7-1.6-4.7-3.7-5.9c-0.7-0.4-1.2-0.6-1.8-0.6c-1.2,0-1.9,1-2.6,2L83.5,41l0.2,0.5
		c0.1,0.2,0.2,0.3,0.2,0.5c0.2,0.4,0.4,0.8,0.6,1.1c0.8,1.3,1.1,2.6,1,4c-0.1,1.7-0.6,3.4-1.7,5.5C82,56.6,79.1,60,76.4,63
		C73,66.6,69,69.9,64,73.2c-1.7,1.1-3.6,2.2-5.7,2.6c-0.3,0.1-0.6,0.1-0.9,0.1c-1.1,0-1.9-0.5-2.4-1.7c0-0.1,0-0.1,0-0.2
		c0.1-0.4,0.2-0.8,0.2-1.3c0.3-4,1.5-7.9,4-12.3l0.2-0.3c1-1.9,2.1-3.8,3.3-5.6c0.7-1,0.9-2.4,0.6-3.7c-0.4-1.4-1.3-2.6-2.7-3.3
		c-0.5-0.3-1-0.4-1.5-0.4c-0.7,0-1.4,0.2-1.9,0.7c-0.5,0.4-1,0.9-1.4,1.4l-0.3,0.3c-0.2,0.2-0.3,0.4-0.5,0.6
		c-0.2,0.3-0.4,0.5-0.6,0.7c-2,1.8-4,3.7-6,5.5c-1.6,1.4-3.1,2.8-4.6,4.3c0.4-0.7,0.8-1.5,1.3-2.2c1-1.7,2-3.6,3-5.4
		c1.5-2.8,2.6-5.8,3.2-8.9c0.8-4-0.2-6.3-3.5-8.6c-2-1.3-4.2-2-6.9-2c-0.9,0-1.8,0.1-2.8,0.2c-3.3,0.5-6.7,1.4-10.4,2.9
		c-6.4,2.6-11.9,5.6-16.8,9.2c-2.4,1.7-5,3.9-6.7,7.1c-1.3,2.5-1.1,5,0.6,7.2c1.1,1.5,2.7,2.3,4.6,2.3c0.6,0,1.3-0.1,2-0.3
		c0.5-0.1,1-0.3,1.6-0.4c0.3-0.1,0.5-0.1,0.8-0.2l0.4-0.1l0.2-0.4l0.4-0.8l0.2-0.4l0.2-0.4L14.7,59c-0.8-2-2.6-2-3.3-2h-0.2
		c-0.7,0-1.3,0-1.9-0.3c0-0.3,0.2-0.7,0.5-1.3c0.1-0.1,0.1-0.2,0.2-0.3c1.2-2,3.1-3.5,5-4.9c4.1-3,8.7-5.2,12.6-7
		c4-1.8,8.4-3.5,13.2-3.8c0.2,0,0.3,0,0.5,0c0.8,0,1.6,0.1,2.3,0.3c0.8,0.2,1.3,0.8,1.3,1.7c0,0.7-0.1,1.5-0.3,2.2
		c-0.6,2.6-1.9,5.1-3.2,7.4l-0.2,0.4c-3.6,6.6-8,12.9-12.2,19L29,70.7c-0.4,0.5-0.8,1.1-1.2,1.6c-0.7,1-1.5,2.1-2.2,3.2
		c-0.8,1.3-1,2.6-0.5,3.6c0.5,1.1,1.7,1.8,3.2,1.9c0.1,0,0.3,0,0.4,0c1.3,0,2.5-0.5,3.6-1.6c3.1-3.1,5.8-5.7,8.4-8.1
		c3.4-3.2,6.8-6.4,10.3-9.7c-0.1,0.3-0.2,0.6-0.3,0.9c-0.4,1.1-0.8,2.1-1.2,3.2c-0.8,2.3-0.8,4.6-0.8,6.9c0,0.4,0,0.7,0,1.1
		c0,2.7,1.2,4.8,3.7,6.2c1.6,0.9,3.3,1.4,5.1,1.4c1.3,0,2.6-0.2,3.9-0.7c2.5-0.9,5-2.3,6.8-3.4c3.2-1.9,6.1-4.2,8.4-6.2
		c4.7-4,8.7-8.6,11.8-13.5C91.2,53.3,92.3,49.3,91.8,45.1"/>
	<path class="st0" d="M121.1,79.3l-0.4-0.2c-0.7-0.3-1.2-0.4-1.7-0.4c-1.1,0-1.7,0.9-2,1.3c-0.6,0.9-1.3,1.6-2.2,1.9
		c-1.7,0.6-3.2,1.1-4.7,1.4c-0.5,0.1-0.9,0.1-1.4,0.1c-0.9,0-1.7-0.2-2.4-0.7c-0.4-0.5-0.4-0.8-0.3-1.1c0.5-2.2,1.3-4.7,2.7-6.9
		c1.4-2.1,3-4.3,4.9-6.7c1-1.3,2-2.6,3.1-3.8c0.6-0.7,1.1-1.4,1.7-2.1c0.5-0.6,1.6-2,0.7-3.7l-0.1-0.2l-0.1-0.1
		c-0.7-0.6-1.5-1-2.4-1c-0.8,0-1.6,0.3-2.3,0.5c-0.1,0-0.2,0.1-0.3,0.1c-1.7-0.3-3-0.5-4.2-0.5c-2.1,0-3.8,0.4-6.1,1.5
		c-4.4,2.1-8.5,4.9-12.5,8.4c-1.9,1.7-3.2,3.2-4.2,4.9c-0.7,1.1-1.5,2.8-1.3,5c0.2,2.5,1.9,3.2,3.2,3.3c0.3,0,0.6,0,0.9,0
		c1.2,0,2.3-0.3,3.3-0.9c2.7-1.6,5.4-3.2,8.1-4.8l0.9-0.5c-1.3,2.4-1.8,5.1-1.6,8.1c0.1,1.8,0.9,3.2,2.3,4.2
		c0.7,0.5,1.7,1.1,2.7,1.5c1.7,0.6,3.4,0.9,5.1,0.9c2.3,0,4.7-0.6,7.2-1.6c0.9-0.4,1.8-1.1,2.6-2c1.9-2.2,1.7-4.3,1.1-5.6
		L121.1,79.3z M96.8,72.1c-0.8,0.5-1.7,1.1-2.8,1.7c0,0,0-0.1,0.1-0.1c2.6-4.1,6.2-7.6,10.7-10.2c1-0.6,1.9-0.9,2.8-0.9
		c0.2,0,0.3,0,0.5,0c0.2,0,0.3,0,0.4,0.1c-0.5,0.5-1,0.9-1.5,1.4C103.7,66.9,100.4,69.7,96.8,72.1"/>
	<path class="st0" d="M151.7,56.7l-0.1-0.1l-0.1-0.1c-0.9-0.8-1.9-1.5-3.2-1.5c-0.3,0-0.6,0-0.9,0.1l-0.1,0l-0.1,0.1
		c-0.2,0.1-0.4,0.2-0.6,0.3c-0.4,0.2-0.9,0.5-1.3,0.7c-1.3,0.6-2.2,1.7-2.5,3c-0.2,0.8-0.7,1.4-1.4,2.2c-0.4,0.5-0.8,0.9-1.3,1.4
		c-0.5,0.6-1,1.2-1.6,1.7c-2,2.1-4.1,4.3-6.2,6.5c0.8-1.1,1.5-2.3,2.3-3.4c0.5-0.8,1.1-1.6,1.6-2.4c0.4-0.6,0.8-1.2,1.1-1.7l0.5-0.7
		l0.3-0.4l-0.1-0.4c-0.5-1.9-1.8-3-3.4-3c-0.6,0-1.3,0.2-1.9,0.5c-0.6,0.3-1.2,0.8-1.7,1.5c-1.5,1.7-2.7,3.1-3.8,4.5
		c-3,3.8-4.9,7.2-5.9,10.9L121,77l0.2,0.4c1,2,2.5,3,4.5,3c0.4,0,0.7,0,1.1-0.1c2.6-0.4,4.5-1.2,6-2.4c2.2-1.7,4.5-3.6,6.7-5.6
		c1.7-1.6,3.3-3.1,5-4.8c0.6-0.6,1.3-1.3,1.9-1.9c0.1,0,0.2,0,0.3,0c0.3,0,0.6,0,0.9,0c0.4,0,0.7,0,1.1,0c1,0,1.9-0.5,2.3-1.2
		c0.5-0.7,0.5-1.7,0-2.7c-0.1-0.2-0.2-0.4-0.3-0.5c0.1-0.2,0.2-0.3,0.4-0.5C151.7,59.7,152.6,58.5,151.7,56.7"/>
	<path class="st0" d="M178.9,58.2c-0.3-2.4-1.7-4.1-4-4.8c-0.6-0.2-1.3-0.3-1.9-0.3c-1.1,0-2.3,0.3-3.6,0.9c-4.6,2.1-8.6,5.1-12,9
		c-2.5,2.9-4.1,5.8-4.9,8.9c-0.6,2.4-0.1,4.4,1.5,5.9c1.2,1.1,2.3,1.9,3.4,2.4c0.8,0.4,2.1,0.8,3.4,0.8c0.3,0,0.5,0,0.8-0.1
		c3.5-0.5,6.9-1.8,9.9-3.7c0.5-0.3,0.8-0.7,1.1-1c0.1-0.1,0.2-0.2,0.3-0.3l0.4-0.4l-0.1-0.5c-0.4-2-1.8-2.3-2.6-2.3l-0.1,0
		c-0.8,0-1.6,0.1-2.4,0.3c-0.8,0.2-1.5,0.5-2.2,0.8c-0.9,0.3-1.8,0.7-2.8,0.9l-0.4,0.1c-0.8,0.2-1.6,0.4-2.3,0.4
		c-0.5,0-0.9-0.1-1.3-0.4c-0.4-0.6-0.4-1.1-0.1-2.1c0.7-1.8,1.7-3.5,3.3-5.2c0.1,0,0.2,0,0.3,0c0.6,0,1.2,0,1.8-0.1
		c3.8-0.8,7.8-1.9,11.4-4C178.7,61.8,179.1,59.7,178.9,58.2"/>
	<path class="st4" d="M84.6,41c1-1.6,1.6-1.8,2.9-1c2,1.2,2.9,2.9,3.2,5.2c0.6,4.4-0.9,8.3-3.2,11.9c-3.2,5-7.1,9.4-11.7,13.3
		c-2.6,2.2-5.3,4.4-8.2,6.1c-2.1,1.2-4.3,2.4-6.6,3.3c-2.7,1-5.6,0.9-8.2-0.6c-2-1.2-3.2-2.8-3.2-5.3c0-2.6-0.1-5.2,0.8-7.7
		c0.6-1.6,1.2-3.2,1.8-4.8c0.2-0.6,0.5-1.3,0.4-2.1c-0.3,0.2-0.7,0.3-1,0.5c-3.9,3.6-7.8,7.3-11.6,10.9c-2.8,2.7-5.6,5.4-8.4,8.1
		c-0.9,0.9-1.9,1.4-3.2,1.3c-2.4-0.2-3.3-1.9-2-3.9c1.1-1.6,2.2-3.2,3.4-4.8c4.4-6.3,8.8-12.6,12.5-19.3c1.4-2.6,2.9-5.2,3.5-8.1
		c0.2-0.8,0.3-1.6,0.3-2.4c-0.1-1.3-0.8-2.3-2-2.6c-1-0.3-2.1-0.4-3.1-0.3c-4.8,0.3-9.2,2-13.5,3.9c-4.5,2-8.8,4.2-12.8,7.1
		c-2,1.5-4,3-5.3,5.2c-0.5,0.8-1.2,1.7-0.8,2.8c0.9,0.7,1.9,0.7,2.9,0.7c1,0,1.9,0.2,2.4,1.4c-0.2,0.4-0.4,0.8-0.6,1.2
		c-0.9,0.2-1.6,0.5-2.3,0.6c-2.2,0.5-4.2,0.2-5.6-1.7c-1.4-1.9-1.6-4-0.5-6.1c1.5-2.9,3.9-4.9,6.4-6.8c5.1-3.8,10.7-6.7,16.6-9.1
		c3.3-1.3,6.7-2.4,10.2-2.8c3.1-0.4,6.2-0.3,9,1.6c3,2.1,3.8,3.9,3.1,7.6c-0.6,3-1.6,5.9-3.1,8.6c-1.7,3.1-3.5,6.2-5.2,9.3
		c-0.3,0.6-0.9,1.1-0.7,2.1c0.9-0.4,1.4-0.9,2-1.4c4-3.6,7.9-7.2,11.9-10.9c0.4-0.4,0.8-0.9,1.2-1.3c0.5-0.6,1-1.2,1.6-1.6
		c0.7-0.6,1.5-0.6,2.3-0.2c2.2,1.1,2.9,3.8,1.7,5.5c-1.3,1.9-2.4,3.9-3.5,5.9c-2.2,3.9-3.8,8.1-4.1,12.7c0,0.6-0.2,1.2-0.3,1.7
		c0.9,2.1,2.3,2.8,4.5,2.5c2.3-0.4,4.2-1.5,6.1-2.7c4.5-3,8.8-6.4,12.5-10.4c3-3.2,5.8-6.6,7.7-10.5c0.9-1.9,1.6-3.8,1.7-5.9
		c0.1-1.7-0.3-3.2-1.1-4.6C85.1,42.1,84.8,41.5,84.6,41"/>
	<path class="st4" d="M103.5,72.1c-0.3,0.1-0.5,0.2-0.8,0.3c-3.5,2-6.9,4-10.4,6.1c-1.1,0.7-2.3,0.8-3.6,0.7
		c-1.5-0.1-2.2-0.9-2.3-2.4c-0.2-1.6,0.4-3,1.2-4.4c1.1-1.8,2.5-3.3,4-4.7c3.7-3.3,7.8-6.1,12.3-8.3c3.3-1.6,5.6-1.8,9.9-0.9
		c1.4-0.5,2.9-1.3,4.3,0c0.6,1.1,0,1.9-0.6,2.7c-1.6,2-3.2,3.9-4.8,5.9c-1.7,2.2-3.3,4.4-4.9,6.7c-1.5,2.2-2.3,4.7-2.9,7.2
		c-0.2,0.8,0.1,1.5,0.6,2.1c1.5,1.1,3.1,1.1,4.7,0.8c1.7-0.3,3.3-0.8,4.9-1.4c1.1-0.4,2-1.2,2.6-2.3c0.7-1.1,1-1.1,2.4-0.5
		c0.7,1.7,0.2,3.2-0.9,4.5c-0.6,0.7-1.4,1.4-2.2,1.7c-3.7,1.7-7.6,2.1-11.5,0.7c-0.9-0.3-1.7-0.8-2.5-1.4c-1.2-0.8-1.8-2-1.8-3.4
		c-0.2-2.9,0.4-5.6,1.8-8.2c0.3-0.5,0.5-1,0.7-1.5C103.7,72.3,103.6,72.2,103.5,72.1 M109.8,62.6c-0.4-0.9-1-1-1.7-1.1
		c-1.4-0.2-2.7,0.3-3.9,1C99.7,65.1,96,68.5,93.2,73c-0.4,0.6-0.6,1.1-0.4,2c0.4-0.1,0.8,0,1.2-0.2c1.1-0.6,2.3-1.3,3.4-2
		c3.7-2.4,7-5.2,10.2-8.1C108.3,63.9,109.1,63.2,109.8,62.6"/>
	<path class="st4" d="M122,76.8c1.1-4,3.2-7.4,5.7-10.6c1.2-1.5,2.5-3,3.7-4.5c0.4-0.5,0.9-0.9,1.5-1.3c1.7-0.9,3.2-0.2,3.8,1.8
		c-0.5,0.8-1,1.6-1.6,2.4c-1.7,2.4-3.3,4.9-5,7.3c-0.4,0.6-0.9,1.2-0.7,2.2c0.4-0.1,0.8-0.1,1-0.3c0.7-0.6,1.3-1.2,1.9-1.8
		c2.2-2.3,4.4-4.6,6.6-6.9c1-1,1.9-2.1,2.9-3.1c0.7-0.8,1.4-1.5,1.6-2.7c0.2-1.1,1-1.9,2-2.4c0.7-0.3,1.3-0.7,2-1.1
		c1.4-0.3,2.4,0.4,3.3,1.2c0.9,1.8-0.8,2.6-1.2,3.9c0.2,0.3,0.4,0.6,0.5,0.9c0.6,1.3,0,2.4-1.5,2.4c-0.9,0-1.9,0-2.6,0
		c-2.5,2.4-4.8,4.8-7.2,7c-2.1,1.9-4.4,3.8-6.6,5.6c-1.6,1.3-3.5,1.9-5.5,2.2C124.5,79.5,123,78.7,122,76.8"/>
	<path class="st4" d="M162,66.4c-1.6,1.7-3,3.6-3.8,5.9c-0.4,1-0.6,2.1,0.3,3.2c1.6,1.1,3.3,0.5,5,0c1.7-0.5,3.3-1.2,5-1.7
		c0.7-0.2,1.4-0.2,2.1-0.3c0.9,0,1.5,0.4,1.7,1.5c-0.4,0.3-0.8,0.9-1.3,1.2c-2.9,1.8-6.2,3-9.6,3.5c-1.1,0.2-2.5-0.2-3.6-0.7
		c-1.2-0.5-2.2-1.3-3.2-2.2c-1.4-1.3-1.6-3-1.2-4.9c0.8-3.2,2.5-6,4.6-8.4c3.3-3.7,7.2-6.7,11.7-8.7c1.5-0.7,3.1-1.1,4.8-0.5
		c2,0.6,3.1,2.1,3.3,4c0.2,1.9-0.8,3.2-2.4,4.2c-3.5,2-7.3,3.1-11.1,3.9C163.6,66.5,162.8,66.4,162,66.4 M165.1,62.9
		c0.4,0,0.9,0.1,1.3,0c1.5-0.4,3-0.8,4.3-1.5c1-0.5,1.8-1.3,2.7-2c0.4-0.4,0.8-0.9,0.5-1.6c-0.6-0.5-1.3-0.2-1.8,0.1
		C169.7,59.3,167.2,60.8,165.1,62.9"/>
</g>
</svg>
