<?xml version="1.0" encoding="utf-8"?>
<!-- Generator: Adobe Illustrator 24.2.3, SVG Export Plug-In . SVG Version: 6.00 Build 0)  -->
<svg version="1.1" id="Layer_1" xmlns="http://www.w3.org/2000/svg" xmlns:xlink="http://www.w3.org/1999/xlink" x="0px" y="0px"
	 viewBox="0 0 568.9 197.7" style="enable-background:new 0 0 568.9 197.7;" xml:space="preserve">
<style type="text/css">
	.st0{fill:#0071CE;}
	.st1{fill:#009ADE;}
	.st2{fill:#FFFFFF;}
	.st3{fill:#00698F;}
</style>
<g>
	<path class="st0" d="M458,178.1c1.6,1,3.4,2.4,5.1,3.3c-13.5-2.4-27.8-0.5-40.5,2.4c-31.2,5.7-61.5,19-96.1,11.9
		c-28.7-6.2-53.1-20.9-86.8-18.1c-28.7,2.4-50.6,11.4-79.2,15.2c-21.1,2.4-45.5,1-58.2-9.5c13.5,0.5,27,1,40.5-1.4
		c19.4-2.9,32.9-10.5,50.6-14.8c36.3-8.1,67.4,8.6,99.5,15.2c16.9,3.8,36.3,3.3,53.1-0.5c28.7-6.7,58.2-19.5,91.1-12.4
		C445.3,171.4,452.1,174.3,458,178.1z"/>
	<path class="st1" d="M415.1,162c3.1,1.2,5.9,2.4,9.3,3.3c-16-2.4-32-0.5-47.2,3.3c-24.4,6.7-50.6,16.7-79.2,11.4
		c-16.9-3.8-32.9-8.6-48.1-13.8c17.7,3.3,37.1,3.3,55.6,1c26.1-3.8,47.2-16.7,75.9-13.8C394.1,154.4,404.2,157.8,415.1,162z"/>
	<path d="M232.7,98.9c0,2.7-0.3,4.9-0.9,6.5c-0.9,2.6-2.4,4.5-4.5,5.9c-2,1.3-4.4,2-7.2,2c-4.5,0-8-1.5-10.4-4.6
		c-1.8-2.3-2.7-5.1-2.7-8.4c0-3.6,1.1-6.6,3.2-9c2.4-2.8,5.8-4.2,10.2-4.2c2.9,0,5.4,0.7,7.4,2.2c1.4,1.1,2.7,2.6,3.7,4.7l-6.1,2.5
		c-0.5-1.2-1.1-2-1.8-2.6c-1-0.8-2.2-1.2-3.5-1.2c-2.8,0-4.7,1.4-5.8,4.3c-0.4,1.1-0.6,2.1-0.6,3.3c0,2.3,0.7,4.3,2.2,5.9
		c1.1,1.2,2.6,1.7,4.4,1.7c1.6,0,2.9-0.5,3.9-1.4c0.6-0.6,1-1.5,1.2-2.7H220v-4.9H232.7z"/>
	<path d="M260.1,112.6h-6.8l-1.6-4.3h-8.8l-1.7,4.3h-6.8l9.5-24.7h7L260.1,112.6z M250,103.4l-2.7-7.9l-2.7,7.9H250z"/>
	<polygon points="277.1,112.6 263,112.6 263,87.9 269.4,87.9 269.4,107.2 277.1,107.2 	"/>
	<path d="M303.8,112.6h-6.8l-1.6-4.3h-8.8l-1.7,4.3h-6.8l9.5-24.7h7L303.8,112.6z M293.7,103.4l-2.7-7.9l-2.7,7.9H293.7z"/>
	<polygon points="330.3,112.6 322.6,112.6 317.3,104.5 311.8,112.6 304,112.6 313.7,99.4 305.8,87.9 313.7,87.9 317.3,94.3 
		321.2,87.9 329,87.9 321,99.4 	"/>
	<polygon points="354.4,87.9 345.2,100.7 345.2,112.6 338.8,112.6 338.8,100.7 329.8,87.9 337.5,87.9 342.2,94.6 346.6,87.9 	"/>
	<path d="M535.7,112.2c-0.1-0.1-0.4-0.2-0.8-0.1l0,0c-0.4,0.2-2.6,0-3.4-0.1c-0.4,0-0.7-0.1-0.9-0.1l-5.8,0l-6.8-0.1l-9.4-0.2
		c-6.5-0.2-13.1-0.3-19.7-0.2c-11.2,0.2-20.4-1.4-28.2-5c-4.4-2-8.7-4.3-12.8-6.6c-4.6-2.5-9.3-5-14.3-7.3c-9.4-4.2-19.9-7-30-9.6
		l-2-0.5l-12.2-3.1l-7.2-1.8l-37.2-9.6l-0.3-0.2c-4-9.4-25.8-17.7-52.6-19.6c-7.4-0.5-14.4-0.5-20.9,0L263,37.5h13.8h0.4v-0.4v-3.2
		v-0.4h-0.4h-16.9l-14.1-18h7.1v-3.8h-10l-9.1-11.6L233.6,0h-0.2h-8.3h-0.6l0.3,0.5l3.1,5.8h-15.2h-0.4v0.4l-0.6,2.7v0.4h0.4h17.7
		l11.5,21.8h-25.9H215V32l-0.6,2.7v0.4h0.4h28.4l3.2,6L227,60.7L25.6,67.1l0,0.7c29.7,0.3,59.4,0.5,89.1,0.8
		c22.8,0.2,45.6,0.2,68.4,0.3l13.5,0.1c10.1-0.5,20.5-0.7,31.1-0.7c95,0,175,20.3,199.4,48l-231,4.2l285,3.2c2,0.4,3.8,1.3,5.3,2.6
		c4.6,4.2,5,12,1.7,20.9c-0.1,0.1-0.1,0.3-0.2,0.4c-0.1,0.4-0.3,0.7-0.4,1.1c0,0.1-0.1,0.1-0.1,0.2c-0.4,0.9-0.8,1.8-1.2,2.7
		l-0.1,0.1c-0.2,0.4-0.4,0.8-0.6,1.2c0,0.1-0.1,0.2-0.1,0.3c-0.2,0.4-0.4,0.7-0.6,1.1c-0.1,0.1-0.1,0.2-0.2,0.3
		c-0.2,0.4-0.4,0.7-0.6,1.1c-0.1,0.1-0.1,0.2-0.2,0.3c-0.2,0.3-0.4,0.7-0.6,1c-0.1,0.1-0.1,0.2-0.2,0.3c-0.2,0.3-0.4,0.7-0.7,1
		c-0.1,0.1-0.1,0.2-0.2,0.3c-0.2,0.4-0.5,0.7-0.7,1.1c-0.1,0.1-0.1,0.2-0.2,0.3c-0.3,0.4-0.5,0.7-0.8,1.1c-0.1,0.1-0.1,0.2-0.2,0.3
		c-0.3,0.4-0.6,0.8-0.9,1.2c0,0.1-0.1,0.1-0.1,0.2c-0.3,0.4-0.7,0.8-1,1.3c-0.8,1-1.6,1.9-2.4,2.8c-2.3,2.5-4.7,4.8-7.1,6.9
		c-0.4,0.3-0.9,0.7-1.3,1.1c-1.7,1.5-2.8,3-2.5,3.3c0.3,0.3,1.9-0.6,3.5-2.1l0.1-0.1l0,0c5.1-4.2,10.5-8.7,16-13.5
		C514.6,136.8,537.5,114.3,535.7,112.2z"/>
	<path d="M568.8,117.2c-0.1-0.1-0.3-0.1-0.7-0.1l0,0c-0.3,0.2-2.2,0-2.9-0.1c-0.4,0-0.6-0.1-0.8-0.1l-4.9,0l-5.8,0l-8-0.2
		c-2.8-0.1-5.7-0.1-8.7-0.2c-2.9,3.2-6.9,7.2-11.8,11.9c0.4,0.3,0.9,0.6,1.3,0.9c4,3.6,4.2,10.3,1.5,17.9c0,0.1-0.1,0.2-0.1,0.4
		c-0.1,0.3-0.2,0.6-0.4,0.9c0,0.1,0,0.1-0.1,0.2c-0.3,0.8-0.7,1.5-1,2.3l-0.1,0.1c-0.2,0.3-0.3,0.7-0.5,1.1c0,0.1-0.1,0.1-0.1,0.2
		c-0.2,0.3-0.3,0.6-0.5,0.9c0,0.1-0.1,0.2-0.1,0.3c-0.2,0.3-0.3,0.6-0.5,0.9c-0.1,0.1-0.1,0.2-0.2,0.3c-0.2,0.3-0.4,0.6-0.5,0.9
		c-0.1,0.1-0.1,0.2-0.2,0.3c-0.2,0.3-0.4,0.6-0.6,0.9c-0.1,0.1-0.1,0.2-0.2,0.3c-0.2,0.3-0.4,0.6-0.6,0.9c-0.1,0.1-0.1,0.2-0.2,0.3
		c-0.2,0.3-0.4,0.6-0.7,0.9c-0.1,0.1-0.1,0.1-0.2,0.2c-0.2,0.3-0.5,0.7-0.7,1l-0.1,0.2c-0.3,0.4-0.6,0.7-0.9,1.1
		c-0.7,0.8-1.4,1.6-2.1,2.4c-2,2.2-4,4.1-6.1,5.9c-0.4,0.3-0.8,0.6-1.2,0.9c-1.4,1.3-2.4,2.6-2.1,2.8c0.3,0.3,1.6-0.5,3-1.8l0.1-0.1
		l0,0c4.4-3.6,9-7.5,13.8-11.6C550.7,138.3,570.3,119,568.8,117.2z"/>
	<path class="st1" d="M501.5,171.8c-1.9-1.6-3.8-3.3-5.9-4.6c-3-2-6-3.3-9.2-4.2l-9.1,7.5c2.5,0.1,4.9,0.2,7.3,0.5
		c3.8,0.4,7.6,1.2,11.4,2.4c3.4,1.1,6.8,2.6,10.4,1.9C505,175.4,502.6,172.7,501.5,171.8z"/>
	<polygon points="221.1,76.9 221.1,78.2 218.5,78.2 218.5,84.1 216.7,84.1 216.7,78.2 214.1,78.2 214.1,76.9 	"/>
	<polygon points="231.5,76.9 231.5,84.1 229.7,84.1 229.7,81.2 226.2,81.2 226.2,84.1 224.4,84.1 224.4,76.9 226.2,76.9 226.2,79.8 
		229.7,79.8 229.7,76.9 	"/>
	<polygon points="240.6,82.8 240.6,84.1 235.3,84.1 235.3,76.9 240.5,76.9 240.5,78.2 237.1,78.2 237.1,79.8 240.4,79.8 240.4,81.1 
		237.1,81.1 237.1,82.8 	"/>
	<path class="st2" d="M196.1,113.5c2.4-5.1,3.6-9.9,3.6-14.4c0-3.4-0.4-6.4-1.4-9c-0.9-2.6-2.4-4.8-4.3-6.6l0,0l0,0
		c-0.5-0.5-1.2-1.1-2-1.5c-0.8-0.5-1.8-0.8-2.9-0.8c-1.1,0-2.1,0.4-2.8,1c-0.4,0.3-0.7,0.7-0.9,1.2c-0.2,0.5-0.4,1-0.4,1.5
		c0,0.7,0.2,1.4,0.6,2c0.3,0.6,0.7,1,1.2,1.5c0.7,0.9,1.3,2.1,1.6,3.7c0.4,1.6,0.6,3.6,0.6,5.9c0,0.3,0,0.6,0,1
		c-0.2,3.8-1.4,8-3.6,12.7c-2.2,4.7-5.5,9.7-9.8,15.2c-7.5,9.5-16.7,18.3-27.2,26.2c-5.3,4-9.9,7-13.6,9c-3.8,2.1-6.8,3.1-9,3.4l0,0
		l0,0c-0.5,0.1-1.3,0.1-1.9,0.1c-1.2,0-2.3-0.2-3.3-0.5c-1-0.3-1.8-0.7-2.4-1.2c-0.6-0.5-1-1-1.3-1.6c-0.3-0.6-0.4-1.2-0.4-2l0-0.2
		l0,0v0c0.1-7.7,1.7-15.1,4.7-22.7c2.9-6.9,7.6-15.4,13.6-24.6l0,0l0,0c0.3-0.5,0.5-1,0.6-1.5c0.1-0.5,0.2-0.9,0.2-1.4
		c0-0.9-0.2-1.9-0.5-2.8c-0.5-1.4-1.3-2.7-2.4-3.8c-1.1-1.1-2.4-2.1-3.9-2.5l0,0l0,0l-0.3-0.1l0,0l0,0c-0.2,0-0.5-0.1-0.8-0.1
		c-0.8,0-1.7,0.2-2.6,0.7c-0.9,0.5-1.8,1.3-2.6,2.5c-0.7,0.8-1.2,1.4-1.6,2c-0.3,0.4-0.6,0.7-0.8,1.1l-26,23.8l0,0l-9.5,8.7
		c4.2-6.3,7.9-12.7,11.4-19.1l0,0l0,0c4-7.5,7-13.9,9-19.5c2-5.6,3-10.3,3-14.3c0-0.3,0-0.6,0-0.9c-0.1-2.4-0.9-4.6-2.3-6.6
		c-1.4-2-3.4-3.7-5.9-5.1l0,0l0,0l0,0l0,0c-4.2-2.6-8.9-3.9-13.9-3.9c-0.9,0-1.8,0-2.8,0.1l0,0l0,0c-14.6,1.6-31,7.6-48.8,17.7l0,0
		h0C25,93,17.9,97.8,12.7,102.5c-2.6,2.3-4.7,4.6-6.3,6.9c-1.6,2.2-2.8,4.5-3.4,6.7c-0.2,0.5-0.3,1-0.4,1.5
		c-0.1,0.5-0.1,0.9-0.1,1.3c0,2.2,0.6,4.5,1.7,6.6c0.6,1,1.2,2,2,2.8c0.8,0.8,1.7,1.5,2.8,2l0,0l0,0l0,0l0,0
		c1.7,0.7,3.6,1.1,5.6,1.1c1.8,0,3.8-0.3,5.8-0.9c0.8-0.1,1.4-0.3,2-0.5c0.9-0.4,1.6-0.9,2-1.5c0.4-0.6,0.6-1.3,0.6-1.8
		c0-0.6-0.2-1.2-0.5-1.7c-0.2-0.4-0.6-0.7-0.9-0.9c-0.5-0.4-1.1-0.6-1.8-0.7c-0.6-0.1-1.3-0.2-2.1-0.2c-2.5,0-4.2-0.2-5.2-0.5
		c-0.9-0.2-1.3-0.4-1.4-0.5l-0.1-0.1c-0.1-0.1-0.1-0.1-0.2-0.3c-0.1-0.1-0.1-0.4-0.1-0.8c0-0.6,0.2-1.5,0.7-2.8
		c1.6-3.7,5.1-7.7,10.5-12c5.4-4.3,12.7-8.8,21.8-13.4l0,0l0,0c9.2-4.6,17.4-8,24.5-10.2c7.1-2.2,13.2-3.3,18.2-3.3
		c1.6,0,2.9,0.2,4,0.4c0.8,0.2,1.5,0.5,2.1,0.9c0.9,0.5,1.5,1.2,2,2.1c0.5,0.9,0.9,2,1,3.4l0,0l0,0c0,0.3,0.1,0.6,0.1,0.9
		c0,1.6-0.5,4.1-1.8,7.8c-2,5.5-5.9,13.4-12.8,24.9c-6.9,11.4-16.7,26.3-30.7,45.7l-0.1,0.1l0,0.1l-0.2,0.3l0,0.1l0,0.1
		c-0.1,0.3-0.2,0.6-0.3,1c-0.1,0.4-0.2,0.8-0.2,1.3c0,0.7,0.1,1.4,0.5,2c0.5,1,1.4,1.9,2.6,2.5c1.2,0.6,2.7,0.9,4.5,0.9
		c1,0,1.9-0.2,2.8-0.5c0.9-0.3,1.6-0.8,2.2-1.5l0,0c1.7-1.8,3.2-3.5,4.6-5l0,0l0,0c1.6-1.8,3-3.3,4.2-4.4l41.2-38.4
		c-5.8,11.2-8.7,21.9-8.7,31.9c0,1.7,0,3.1,0.2,4.8l0,0l0,0c0.2,2,0.8,3.9,1.8,5.6c1.5,2.5,3.7,4.6,6.5,6c2.8,1.4,6,2.2,9.6,2.2
		c1.2,0,2.3-0.1,3.4-0.2l0,0l0,0l0.4,0l0.1,0l0.1,0c3.9-0.7,8.3-2.3,13-4.8c4.8-2.5,10.1-6,15.9-10.4l0,0l0,0
		c12-9.1,21.6-18.5,29.3-28.6h0C190.2,124.2,193.7,118.7,196.1,113.5z M266.8,173.9c-0.3-0.7-0.8-1.3-1.3-1.7
		c-0.6-0.4-1.3-0.7-2-0.7c-0.4,0-0.9,0.1-1.3,0.3v0c-0.6,0.3-1.1,0.7-1.5,1.2c-0.3,0.5-0.6,1-0.8,1.5c-0.5,0.8-1.3,1.7-2.4,2.6
		c-1.2,0.9-2.7,1.8-4.6,2.6c-1.3,0.5-2.4,0.9-3.5,1.2l0,0l0,0c-3,0.8-6.4,1.3-9.6,1.3c-1.5,0-2.8-0.1-3.8-0.4
		c-0.8-0.2-1.5-0.4-2-0.7c-0.8-0.4-1.3-0.9-1.7-1.5c-0.3-0.6-0.5-1.3-0.5-2.3c0-0.7,0-1.2,0.1-1.8c0.9-4.6,2.1-8.3,4.1-12.1
		c2-3.9,4.7-8,8.6-13.3c4-5.3,8.4-10.7,12.6-15.9l4.3-5.3l0.1-0.1l0.1-0.1l0.2-0.4l0.1-0.1l0-0.1c0.2-0.4,0.2-0.8,0.2-1.2
		c0-0.8-0.2-1.4-0.5-1.8c-0.3-0.5-0.5-0.8-0.7-1l0,0l0,0c-1-1.1-2.4-1.7-3.8-1.7c-0.5,0-1.1,0.1-1.6,0.2c-0.6,0.2-1.2,0.4-1.7,0.8
		l0,0l0,0c-0.2,0.1-0.4,0.3-0.7,0.4c-0.3,0.1-0.7,0.2-1.3,0.3l0,0c-0.1,0-0.2,0-0.3,0c-0.2,0-0.5,0-0.7-0.1l0,0l0,0l-0.5,0
		c-2.3-0.6-5-1.1-7.8-1.1c-2.8,0-5.2,0.6-7.2,1.1l0,0l0,0c-8.7,2.8-18.2,8.3-28.3,16.3l0,0l0,0c-5.9,4.7-10.3,9-13.3,13
		c-1.5,2-2.6,3.9-3.4,5.8c-0.8,1.9-1.2,3.7-1.2,5.5c0,1.5,0.3,2.7,0.8,3.8c0.4,0.8,0.9,1.4,1.4,1.9c0.8,0.8,1.8,1.2,2.7,1.5
		c0.9,0.2,1.8,0.3,2.5,0.3c2.2,0,3.9-0.7,5.2-1.3l0,0c6.6-3.1,14.1-7.5,23.1-13.6l0,0l0,0c1.8-1.3,3.6-2.5,5.2-3.7
		c-2.6,4.7-4.5,8.1-5.7,11.4c-1.2,3.3-1.8,6.3-1.9,10l0,0l0,0c0,0.2,0,0.5,0,0.7c0,2.6,0.6,5,1.7,7c1.2,2,2.9,3.5,5.1,4.6l0,0l0,0
		l0,0l0,0c4.3,2.3,9,3.5,13.7,3.5c3.1,0,6.4-0.3,9.7-1.3l3.4-0.7l0.2,0l0.1-0.1c2.7-1.2,4.9-2.6,6.7-4.2c1.8-1.7,3-3.6,3.8-5.8h0
		l0,0l0,0h0c0.3-0.7,0.5-1.7,0.5-2.7C267.2,175.4,267.1,174.6,266.8,173.9z M205.4,161.5c-0.5,0.2-1,0.3-1.1,0.3c-0.2,0-0.3,0-0.4,0
		c0,0-0.2-0.3-0.2-1.2c0-0.8,0.2-1.5,0.4-2.1c2.9-5.2,7.5-10.8,13.9-16.4c6.8-6.1,12.5-9.6,16.8-10.4c1.1-0.2,2-0.3,2.9-0.3
		c2.9,0,4.6,1.1,4.8,1.8C228.1,146.8,216,156.1,205.4,161.5z M335,121l-1.2,1.1L335,121c-0.1-0.1-0.2-0.2-0.3-0.3
		c-0.5-0.4-1.2-1-2.2-1.6c-0.5-0.3-1-0.5-1.6-0.7c-0.6-0.2-1.2-0.3-1.9-0.3c-0.6,0-1.1,0.1-1.7,0.3l0,0l0,0c-1.5,0.6-3,1.6-5.2,2.9
		l0,0l0,0l-1.4,0.8l-0.2,0.1l-0.2,0.2l-0.7,0.8l-0.2,0.2l-0.1,0.2c-0.8,1.7-1.2,3.3-1.6,4.3l0,0l0,0c-0.1,0.3-0.2,0.6-0.3,0.9
		c0,0.1-0.1,0.2-0.1,0.3l-0.2,0.2l-14.6,16.1c-3.1,3.3-6.3,6.7-9.2,9.5c-2.9,2.8-5.5,5.1-7.5,6.5l0-0.1c1-2.9,2.9-6.6,5.6-11
		c2.7-4.4,6.3-9.4,10.8-15l0.1-0.1l0.1-0.1l0.2-0.3l0,0c0.1-0.1,0.3-0.4,0.4-0.8c0.2-0.4,0.3-0.8,0.3-1.4c0-0.8-0.2-1.6-0.6-2.2
		c-0.4-0.7-0.9-1.2-1.6-1.6l0,0l0,0c-1.1-0.7-2.4-1-3.9-1c-0.9,0-1.7,0.1-2.5,0.4c-0.7,0.3-1.4,0.7-1.9,1.3l0,0
		c-6.3,7-11.4,13.4-15.2,19.2c-3.8,5.8-6.4,11.1-7.8,15.9l0,0c-0.1,0.4-0.2,0.8-0.2,1.2c0,1,0.4,1.9,1,2.7c0.8,1,1.8,1.7,3,2.2
		c1.2,0.5,2.4,0.9,3.7,0.9v0l0,0l0,0v0c0.5,0,1,0.1,1.4,0.1c1,0,2-0.1,2.8-0.3l0,0l0,0c0.8-0.2,1.3-0.5,1.8-0.6
		c0.3,0,0.6-0.1,0.8-0.1l0.1,0l0.1,0l3.5-1.3l0.2,0l0.3-0.2c0.9-0.5,1.7-1,2.6-1.6c5.2-3.6,11.4-8.8,18.9-15.9
		c5.8-5.5,10.4-10.3,13.9-14.4c1.1,0.4,2.2,0.7,3.6,1l0,0l0,0c0.5,0.1,1.1,0.2,1.8,0.2c0.5,0,1,0,1.5-0.2c0.5-0.1,1-0.3,1.5-0.7
		c0.4-0.3,0.8-0.6,1.2-1.2c0.4-0.6,0.6-1.3,0.6-2.2c0-0.7-0.2-1.4-0.6-2c-0.4-0.5-0.9-1-1.5-1.3l0,0c-0.2-0.1-0.3-0.2-0.3-0.2
		c0-0.2,0.2-0.5,0.5-1.1c0.5-0.8,1.3-2,2.8-3.7l0,0c0.2-0.2,0.4-0.4,0.5-0.8c0.2-0.4,0.3-0.9,0.3-1.4c0-0.4-0.1-0.9-0.3-1.3
		C335.6,121.8,335.4,121.4,335,121z M396.5,124.5c0-2.7-1.1-5.3-3.2-7.4l0,0c-2.2-2.2-5.1-3.3-8.2-3.3c-1.1,0-2.3,0.2-3.4,0.5l0,0
		l0,0c-3.6,1.2-7.8,3.3-12.2,6.1c-6.6,4.2-13.6,10-19.1,16.6c-2.7,3.3-5.1,6.8-6.9,10.4c-1.8,3.6-2.9,7.4-3.1,11.2v0l0,0
		c0,0.1,0,0.3,0,0.4c0,2,0.6,3.9,1.8,5.7c1.1,1.8,2.8,3.4,4.8,4.8c3.3,2.3,7.2,3.5,10.7,3.6c0.7,0,1.3-0.1,2-0.2v0l0,0l0,0
		c4.1-0.6,8.4-1.9,12.2-3.5c3.8-1.6,7.1-3.3,9.2-4.6l0,0c0.8-0.4,1.5-1,1.9-1.7c0.4-0.7,0.5-1.3,0.5-1.8c0-0.1,0-0.1,0-0.2v0v0
		c0-0.7-0.3-1.4-0.7-1.9c-0.4-0.5-1-0.9-1.6-1.2c-0.6-0.3-1.3-0.4-2-0.4c-1,0-2.1,0.3-3,0.8l0,0c-2.4,1.1-5.6,2.3-9,3.3
		c-3.3,1-6.9,1.8-9.9,2.1c-0.3,0-0.6,0-0.9,0c-0.7,0-1.5-0.1-2.1-0.2c-0.7-0.2-1.3-0.4-1.7-0.7c-0.4-0.3-0.7-0.7-0.9-1.2
		c-0.2-0.5-0.3-1.2-0.3-2.1c0-0.2,0-0.4,0-0.6c0.2-2.9,1.5-6,3.3-8.9c1.7-2.7,3.9-5.3,6-7.7c1.5,0,3.1,0,4.8,0h0.2l0.2,0
		c0.7-0.1,1.5-0.2,2.3-0.4c4.7-1.1,9.4-2.3,14.1-4.2c3.3-1.3,6.5-2.9,9.6-4.5l0.1-0.1l0.1-0.1c1.2-0.9,2.2-2,3-3.1l0,0l0,0l0,0l0,0
		C396,128.2,396.5,126.3,396.5,124.5z M386.4,126c-3.5,4.2-12.1,7.8-20.7,8.9c6.6-5.4,12.7-9.5,17.8-11.8c2.2-1,3.7-0.9,4.1-0.6
		C388,122.9,388,124.1,386.4,126z"/>
	<g>
		<path class="st2" d="M196.1,113.5c2.4-5.1,3.6-9.9,3.6-14.4c0-3.4-0.4-6.4-1.4-9c-0.9-2.6-2.4-4.8-4.3-6.6l0,0l0,0
			c-0.5-0.5-1.2-1.1-2-1.5c-0.8-0.5-1.8-0.8-2.9-0.8c-1.1,0-2.1,0.4-2.8,1c-0.4,0.3-0.7,0.7-0.9,1.2c-0.2,0.5-0.4,1-0.4,1.5
			c0,0.7,0.2,1.4,0.6,2c0.3,0.6,0.7,1,1.2,1.5c0.7,0.9,1.3,2.1,1.6,3.7c0.4,1.6,0.6,3.6,0.6,5.9c0,0.3,0,0.6,0,1
			c-0.2,3.8-1.4,8-3.6,12.7c-2.2,4.7-5.5,9.7-9.8,15.2c-7.5,9.5-16.7,18.3-27.2,26.2c-5.3,4-9.9,7-13.6,9c-3.8,2.1-6.8,3.1-9,3.4
			l0,0l0,0c-0.5,0.1-1.3,0.1-1.9,0.1c-1.2,0-2.3-0.2-3.3-0.5c-1-0.3-1.8-0.7-2.4-1.2c-0.6-0.5-1-1-1.3-1.6c-0.3-0.6-0.4-1.2-0.4-2
			l0-0.2l0,0v0c0.1-7.7,1.7-15.1,4.7-22.7c2.9-6.9,7.6-15.4,13.6-24.6l0,0l0,0c0.3-0.5,0.5-1,0.6-1.5c0.1-0.5,0.2-0.9,0.2-1.4
			c0-0.9-0.2-1.9-0.5-2.8c-0.5-1.4-1.3-2.7-2.4-3.8c-1.1-1.1-2.4-2.1-3.9-2.5l0,0l0,0l-0.3-0.1l0,0l0,0c-0.2,0-0.5-0.1-0.8-0.1
			c-0.8,0-1.7,0.2-2.6,0.7c-0.9,0.5-1.8,1.3-2.6,2.5c-0.7,0.8-1.2,1.4-1.6,2c-0.3,0.4-0.6,0.7-0.8,1.1l-26,23.8l0,0l-9.5,8.7
			c4.2-6.3,7.9-12.7,11.4-19.1l0,0l0,0c4-7.5,7-13.9,9-19.5c2-5.6,3-10.3,3-14.3c0-0.3,0-0.6,0-0.9c-0.1-2.4-0.9-4.6-2.3-6.6
			c-1.4-2-3.4-3.7-5.9-5.1l0,0l0,0l0,0l0,0c-4.2-2.6-8.9-3.9-13.9-3.9c-0.9,0-1.8,0-2.8,0.1l0,0l0,0c-14.6,1.6-31,7.6-48.8,17.7l0,0
			h0C25,93,17.9,97.8,12.7,102.5c-2.6,2.3-4.7,4.6-6.3,6.9c-1.6,2.2-2.8,4.5-3.4,6.7c-0.2,0.5-0.3,1-0.4,1.5
			c-0.1,0.5-0.1,0.9-0.1,1.3c0,2.2,0.6,4.5,1.7,6.6c0.6,1,1.2,2,2,2.8c0.8,0.8,1.7,1.5,2.8,2l0,0l0,0l0,0l0,0
			c1.7,0.7,3.6,1.1,5.6,1.1c1.8,0,3.8-0.3,5.8-0.9c0.8-0.1,1.4-0.3,2-0.5c0.9-0.4,1.6-0.9,2-1.5c0.4-0.6,0.6-1.3,0.6-1.8
			c0-0.6-0.2-1.2-0.5-1.7c-0.2-0.4-0.6-0.7-0.9-0.9c-0.5-0.4-1.1-0.6-1.8-0.7c-0.6-0.1-1.3-0.2-2.1-0.2c-2.5,0-4.2-0.2-5.2-0.5
			c-0.9-0.2-1.3-0.4-1.4-0.5l-0.1-0.1c-0.1-0.1-0.1-0.1-0.2-0.3c-0.1-0.1-0.1-0.4-0.1-0.8c0-0.6,0.2-1.5,0.7-2.8
			c1.6-3.7,5.1-7.7,10.5-12c5.4-4.3,12.7-8.8,21.8-13.4l0,0l0,0c9.2-4.6,17.4-8,24.5-10.2c7.1-2.2,13.2-3.3,18.2-3.3
			c1.6,0,2.9,0.2,4,0.4c0.8,0.2,1.5,0.5,2.1,0.9c0.9,0.5,1.5,1.2,2,2.1c0.5,0.9,0.9,2,1,3.4l0,0l0,0c0,0.3,0.1,0.6,0.1,0.9
			c0,1.6-0.5,4.1-1.8,7.8c-2,5.5-5.9,13.4-12.8,24.9c-6.9,11.4-16.7,26.3-30.7,45.7l-0.1,0.1l0,0.1l-0.2,0.3l0,0.1l0,0.1
			c-0.1,0.3-0.2,0.6-0.3,1c-0.1,0.4-0.2,0.8-0.2,1.3c0,0.7,0.1,1.4,0.5,2c0.5,1,1.4,1.9,2.6,2.5c1.2,0.6,2.7,0.9,4.5,0.9
			c1,0,1.9-0.2,2.8-0.5c0.9-0.3,1.6-0.8,2.2-1.5l0,0c1.7-1.8,3.2-3.5,4.6-5l0,0l0,0c1.6-1.8,3-3.3,4.2-4.4l41.2-38.4
			c-5.8,11.2-8.7,21.9-8.7,31.9c0,1.7,0,3.1,0.2,4.8l0,0l0,0c0.2,2,0.8,3.9,1.8,5.6c1.5,2.5,3.7,4.6,6.5,6c2.8,1.4,6,2.2,9.6,2.2
			c1.2,0,2.3-0.1,3.4-0.2l0,0l0,0l0.4,0l0.1,0l0.1,0c3.9-0.7,8.3-2.3,13-4.8c4.8-2.5,10.1-6,15.9-10.4l0,0l0,0
			c12-9.1,21.6-18.5,29.3-28.6h0C190.2,124.2,193.7,118.7,196.1,113.5z M266.8,173.9c-0.3-0.7-0.8-1.3-1.3-1.7
			c-0.6-0.4-1.3-0.7-2-0.7c-0.4,0-0.9,0.1-1.3,0.3v0c-0.6,0.3-1.1,0.7-1.5,1.2c-0.3,0.5-0.6,1-0.8,1.5c-0.5,0.8-1.3,1.7-2.4,2.6
			c-1.2,0.9-2.7,1.8-4.6,2.6c-1.3,0.5-2.4,0.9-3.5,1.2l0,0l0,0c-3,0.8-6.4,1.3-9.6,1.3c-1.5,0-2.8-0.1-3.8-0.4
			c-0.8-0.2-1.5-0.4-2-0.7c-0.8-0.4-1.3-0.9-1.7-1.5c-0.3-0.6-0.5-1.3-0.5-2.3c0-0.7,0-1.2,0.1-1.8c0.9-4.6,2.1-8.3,4.1-12.1
			c2-3.9,4.7-8,8.6-13.3c4-5.3,8.4-10.7,12.6-15.9l4.3-5.3l0.1-0.1l0.1-0.1l0.2-0.4l0.1-0.1l0-0.1c0.2-0.4,0.2-0.8,0.2-1.2
			c0-0.8-0.2-1.4-0.5-1.8c-0.3-0.5-0.5-0.8-0.7-1l0,0l0,0c-1-1.1-2.4-1.7-3.8-1.7c-0.5,0-1.1,0.1-1.6,0.2c-0.6,0.2-1.2,0.4-1.7,0.8
			l0,0l0,0c-0.2,0.1-0.4,0.3-0.7,0.4c-0.3,0.1-0.7,0.2-1.3,0.3l0,0c-0.1,0-0.2,0-0.3,0c-0.2,0-0.5,0-0.7-0.1l0,0l0,0l-0.5,0
			c-2.3-0.6-5-1.1-7.8-1.1c-2.8,0-5.2,0.6-7.2,1.1l0,0l0,0c-8.7,2.8-18.2,8.3-28.3,16.3l0,0l0,0c-5.9,4.7-10.3,9-13.3,13
			c-1.5,2-2.6,3.9-3.4,5.8c-0.8,1.9-1.2,3.7-1.2,5.5c0,1.5,0.3,2.7,0.8,3.8c0.4,0.8,0.9,1.4,1.4,1.9c0.8,0.8,1.8,1.2,2.7,1.5
			c0.9,0.2,1.8,0.3,2.5,0.3c2.2,0,3.9-0.7,5.2-1.3l0,0c6.6-3.1,14.1-7.5,23.1-13.6l0,0l0,0c1.8-1.3,3.6-2.5,5.2-3.7
			c-2.6,4.7-4.5,8.1-5.7,11.4c-1.2,3.3-1.8,6.3-1.9,10l0,0l0,0c0,0.2,0,0.5,0,0.7c0,2.6,0.6,5,1.7,7c1.2,2,2.9,3.5,5.1,4.6l0,0l0,0
			l0,0l0,0c4.3,2.3,9,3.5,13.7,3.5c3.1,0,6.4-0.3,9.7-1.3l3.4-0.7l0.2,0l0.1-0.1c2.7-1.2,4.9-2.6,6.7-4.2c1.8-1.7,3-3.6,3.8-5.8h0
			l0,0l0,0h0c0.3-0.7,0.5-1.7,0.5-2.7C267.2,175.4,267.1,174.6,266.8,173.9z M205.4,161.5c-0.5,0.2-1,0.3-1.1,0.3
			c-0.2,0-0.3,0-0.4,0c0,0-0.2-0.3-0.2-1.2c0-0.8,0.2-1.5,0.4-2.1c2.9-5.2,7.5-10.8,13.9-16.4c6.8-6.1,12.5-9.6,16.8-10.4
			c1.1-0.2,2-0.3,2.9-0.3c2.9,0,4.6,1.1,4.8,1.8C228.1,146.8,216,156.1,205.4,161.5z M335,121l-1.2,1.1L335,121
			c-0.1-0.1-0.2-0.2-0.3-0.3c-0.5-0.4-1.2-1-2.2-1.6c-0.5-0.3-1-0.5-1.6-0.7c-0.6-0.2-1.2-0.3-1.9-0.3c-0.6,0-1.1,0.1-1.7,0.3l0,0
			l0,0c-1.5,0.6-3,1.6-5.2,2.9l0,0l0,0l-1.4,0.8l-0.2,0.1l-0.2,0.2l-0.7,0.8l-0.2,0.2l-0.1,0.2c-0.8,1.7-1.2,3.3-1.6,4.3l0,0l0,0
			c-0.1,0.3-0.2,0.6-0.3,0.9c0,0.1-0.1,0.2-0.1,0.3l-0.2,0.2l-14.6,16.1c-3.1,3.3-6.3,6.7-9.2,9.5c-2.9,2.8-5.5,5.1-7.5,6.5l0-0.1
			c1-2.9,2.9-6.6,5.6-11c2.7-4.4,6.3-9.4,10.8-15l0.1-0.1l0.1-0.1l0.2-0.3l0,0c0.1-0.1,0.3-0.4,0.4-0.8c0.2-0.4,0.3-0.8,0.3-1.4
			c0-0.8-0.2-1.6-0.6-2.2c-0.4-0.7-0.9-1.2-1.6-1.6l0,0l0,0c-1.1-0.7-2.4-1-3.9-1c-0.9,0-1.7,0.1-2.5,0.4c-0.7,0.3-1.4,0.7-1.9,1.3
			l0,0c-6.3,7-11.4,13.4-15.2,19.2c-3.8,5.8-6.4,11.1-7.8,15.9l0,0c-0.1,0.4-0.2,0.8-0.2,1.2c0,1,0.4,1.9,1,2.7c0.8,1,1.8,1.7,3,2.2
			c1.2,0.5,2.4,0.9,3.7,0.9v0l0,0l0,0v0c0.5,0,1,0.1,1.4,0.1c1,0,2-0.1,2.8-0.3l0,0l0,0c0.8-0.2,1.3-0.5,1.8-0.6
			c0.3,0,0.6-0.1,0.8-0.1l0.1,0l0.1,0l3.5-1.3l0.2,0l0.3-0.2c0.9-0.5,1.7-1,2.6-1.6c5.2-3.6,11.4-8.8,18.9-15.9
			c5.8-5.5,10.4-10.3,13.9-14.4c1.1,0.4,2.2,0.7,3.6,1l0,0l0,0c0.5,0.1,1.1,0.2,1.8,0.2c0.5,0,1,0,1.5-0.2c0.5-0.1,1-0.3,1.5-0.7
			c0.4-0.3,0.8-0.6,1.2-1.2c0.4-0.6,0.6-1.3,0.6-2.2c0-0.7-0.2-1.4-0.6-2c-0.4-0.5-0.9-1-1.5-1.3l0,0c-0.2-0.1-0.3-0.2-0.3-0.2
			c0-0.2,0.2-0.5,0.5-1.1c0.5-0.8,1.3-2,2.8-3.7l0,0c0.2-0.2,0.4-0.4,0.5-0.8c0.2-0.4,0.3-0.9,0.3-1.4c0-0.4-0.1-0.9-0.3-1.3
			C335.6,121.8,335.4,121.4,335,121z M396.5,124.5c0-2.7-1.1-5.3-3.2-7.4l0,0c-2.2-2.2-5.1-3.3-8.2-3.3c-1.1,0-2.3,0.2-3.4,0.5l0,0
			l0,0c-3.6,1.2-7.8,3.3-12.2,6.1c-6.6,4.2-13.6,10-19.1,16.6c-2.7,3.3-5.1,6.8-6.9,10.4c-1.8,3.6-2.9,7.4-3.1,11.2v0l0,0
			c0,0.1,0,0.3,0,0.4c0,2,0.6,3.9,1.8,5.7c1.1,1.8,2.8,3.4,4.8,4.8c3.3,2.3,7.2,3.5,10.7,3.6c0.7,0,1.3-0.1,2-0.2v0l0,0l0,0
			c4.1-0.6,8.4-1.9,12.2-3.5c3.8-1.6,7.1-3.3,9.2-4.6l0,0c0.8-0.4,1.5-1,1.9-1.7c0.4-0.7,0.5-1.3,0.5-1.8c0-0.1,0-0.1,0-0.2v0v0
			c0-0.7-0.3-1.4-0.7-1.9c-0.4-0.5-1-0.9-1.6-1.2c-0.6-0.3-1.3-0.4-2-0.4c-1,0-2.1,0.3-3,0.8l0,0c-2.4,1.1-5.6,2.3-9,3.3
			c-3.3,1-6.9,1.8-9.9,2.1c-0.3,0-0.6,0-0.9,0c-0.7,0-1.5-0.1-2.1-0.2c-0.7-0.2-1.3-0.4-1.7-0.7c-0.4-0.3-0.7-0.7-0.9-1.2
			c-0.2-0.5-0.3-1.2-0.3-2.1c0-0.2,0-0.4,0-0.6c0.2-2.9,1.5-6,3.3-8.9c1.7-2.7,3.9-5.3,6-7.7c1.5,0,3.1,0,4.8,0h0.2l0.2,0
			c0.7-0.1,1.5-0.2,2.3-0.4c4.7-1.1,9.4-2.3,14.1-4.2c3.3-1.3,6.5-2.9,9.6-4.5l0.1-0.1l0.1-0.1c1.2-0.9,2.2-2,3-3.1l0,0l0,0l0,0l0,0
			C396,128.2,396.5,126.3,396.5,124.5z M386.4,126c-3.5,4.2-12.1,7.8-20.7,8.9c6.6-5.4,12.7-9.5,17.8-11.8c2.2-1,3.7-0.9,4.1-0.6
			C388,122.9,388,124.1,386.4,126z"/>
		<path class="st2" d="M242.8,193.4c-5.1,0-10.2-1.3-14.9-3.8c-2.6-1.3-4.7-3.2-6.1-5.6c-1.4-2.4-2.1-5.1-2.1-8.2c0-0.3,0-0.5,0-0.8
			c0-0.1,0-0.1,0-0.2c0.2-4,0.8-7.2,2.1-10.6c0.3-0.9,0.7-1.9,1.2-2.8c-7.9,5.2-14.6,9.1-20.5,11.9c-1.3,0.7-3.4,1.6-6.2,1.6
			c-1.1,0-2.2-0.1-3.1-0.4c-1.4-0.4-2.7-1.1-3.7-2c-0.8-0.7-1.5-1.7-2-2.7c-0.7-1.4-1-3-1-4.8c0-2.1,0.5-4.2,1.4-6.4
			c0.8-2.1,2.1-4.1,3.7-6.3c3.1-4.1,7.5-8.5,13.7-13.4c0,0,0,0,0.1,0c10.4-8.2,20.2-13.8,29-16.7c0.1,0,0.2-0.1,0.2-0.1
			c2.1-0.6,4.8-1.2,7.8-1.2c3.1,0,5.9,0.6,8.2,1.1l0.4,0c0,0,0.1,0,0.1,0c0,0,0.1,0,0.1,0l0.5,0c0.3,0,0.5-0.1,0.5-0.1
			c0.9-0.7,1.7-1.1,2.7-1.4c0.8-0.2,1.5-0.3,2.3-0.3c0,0,0,0,0,0c2.1,0,4.2,0.9,5.6,2.5c0,0,0,0,0.1,0.1c0.4,0.5,0.7,0.9,1,1.5
			c0.5,1,0.8,2,0.8,3c0,0.8-0.1,1.5-0.4,2.2c0,0.1-0.1,0.3-0.2,0.4l-0.3,0.5c-0.1,0.1-0.2,0.3-0.3,0.4l-4.3,5.4
			c-4.3,5.3-8.6,10.6-12.6,15.9c-4.1,5.6-6.6,9.4-8.4,12.9c-1.8,3.6-3,7.1-3.9,11.5c-0.1,0.4-0.1,0.8-0.1,1.3c0,0.7,0.2,0.9,0.2,1
			c0.1,0.1,0.2,0.3,0.7,0.6c0.4,0.2,0.8,0.3,1.4,0.5c0.9,0.2,2,0.3,3.3,0.3c3,0,6.1-0.4,8.9-1.2c1-0.3,2.1-0.6,3.3-1.1
			c1.6-0.7,3-1.5,4-2.2c1-0.7,1.5-1.3,1.7-1.7c0.3-0.7,0.6-1.3,1-1.9c0.7-0.9,1.5-1.6,2.5-2c1.9-0.8,4.1-0.6,5.7,0.6
			c0.9,0.7,1.7,1.6,2.1,2.7c0,0,0,0,0,0c0.4,1,0.6,2,0.6,3.1c0,1.4-0.3,2.6-0.7,3.5c-0.9,2.5-2.3,4.8-4.4,6.7
			c-1.9,1.8-4.4,3.4-7.4,4.7c-0.2,0.1-0.5,0.2-0.6,0.2l-3.4,0.7C250,192.9,246.7,193.4,242.8,193.4z M224.7,175.2l0,0.6
			c0,2.2,0.5,4.2,1.4,5.8c0.9,1.6,2.3,2.8,4,3.6c4.2,2.2,8.4,3.3,12.7,3.3c3.5,0,6.3-0.4,9-1.2c0.1,0,0.2,0,0.2-0.1l3.3-0.7
			c2.5-1.1,4.4-2.3,5.9-3.7c1.5-1.4,2.5-3,3.1-4.8c0,0,0,0,0-0.1c0.2-0.6,0.4-1.2,0.4-1.9c0-0.4-0.1-0.7-0.2-1.1l0,0
			c-0.1-0.3-0.3-0.5-0.5-0.7c-0.2-0.1-0.6-0.3-0.9-0.1c-0.2,0.1-0.3,0.2-0.5,0.5c-0.2,0.2-0.3,0.5-0.4,0.9c0,0.1-0.1,0.2-0.2,0.4
			c-0.7,1.2-1.7,2.3-3.1,3.4c-1.4,1-3.1,2-5.1,2.9c-1.4,0.6-2.7,1-3.8,1.3c-3.2,0.9-6.8,1.4-10.2,1.4c-1.7,0-3.1-0.1-4.4-0.4
			c-1-0.2-1.8-0.5-2.6-0.9c-1.2-0.6-2-1.4-2.6-2.4c-0.6-1-0.9-2.2-0.9-3.5c0-0.8,0-1.4,0.1-2.2c1-4.9,2.2-8.8,4.3-12.8
			c1.9-3.7,4.5-7.8,8.9-13.6c4-5.3,8.4-10.7,12.6-15.9l4.5-5.6c0,0,0-0.1,0-0.2c0-0.2-0.1-0.4-0.2-0.7c-0.1-0.2-0.3-0.4-0.4-0.5
			c-0.1-0.1-0.1-0.1-0.2-0.2c-0.4-0.4-1.1-0.8-1.8-0.8c0,0,0,0,0,0c-0.3,0-0.7,0-1,0.1c-0.4,0.1-0.6,0.2-0.8,0.4
			c-0.3,0.3-0.8,0.6-1.4,0.8c-0.5,0.2-1.1,0.4-1.8,0.5c-0.1,0-0.3,0-0.4,0l-0.9-0.1c-0.1,0-0.1,0-0.2,0v0l-0.5,0
			c-0.1,0-0.3,0-0.4-0.1c-2.1-0.5-4.6-1-7.3-1.1c-2.5,0-4.7,0.5-6.6,1c-8.3,2.7-17.5,8-27.5,15.9c-5.8,4.7-10,8.8-12.8,12.5
			c-1.4,1.9-2.4,3.6-3.1,5.3c-0.7,1.6-1,3.2-1,4.6c0,1.1,0.2,2,0.5,2.7c0.2,0.4,0.5,0.9,0.9,1.2c0.5,0.4,1,0.7,1.7,0.9
			c0.6,0.2,1.2,0.2,1.8,0.2c1.7,0,3.1-0.6,4.1-1.1c6.5-3,13.9-7.4,22.9-13.5c1.8-1.3,3.5-2.5,5.2-3.6c0.9-0.7,2.2-0.6,3.1,0.2
			c0.9,0.8,1.1,2,0.5,3c-2.4,4.3-4.3,7.8-5.5,11C225.3,168.9,224.8,171.6,224.7,175.2C224.7,175.1,224.7,175.1,224.7,175.2z
			 M123.5,176.7c-3.8,0-7.5-0.9-10.7-2.5c-3.2-1.6-5.8-4-7.5-6.9c-1.2-2-1.9-4.3-2.1-6.6c0,0,0,0,0,0c-0.2-1.7-0.2-3.2-0.2-4.9
			c0-7,1.4-14.4,4.2-22l-32.5,30.3c-1.1,1-2.3,2.4-4,4.3c0,0-0.2,0.2-0.2,0.2c-1.3,1.5-2.8,3.1-4.5,4.8c-0.8,0.9-1.9,1.6-3.1,2.1
			c-1.1,0.4-2.4,0.7-3.7,0.7c-2.2,0-4.1-0.4-5.6-1.2c-1.6-0.8-2.9-2.1-3.7-3.6c-0.5-1-0.7-2-0.7-3.1c0-0.6,0.1-1.3,0.3-1.9
			c0.1-0.5,0.3-1,0.5-1.3c0-0.1,0.1-0.3,0.2-0.3l0.2-0.4c0-0.1,0.1-0.3,0.2-0.3C63.3,146,73.6,130.6,81,118.3
			c6.2-10.2,10.4-18.4,12.6-24.4c1.4-3.9,1.6-6,1.6-6.9c0-0.2,0-0.4,0-0.6c-0.1-1.1-0.4-1.9-0.7-2.5c-0.3-0.5-0.6-0.9-1.2-1.2
			c-0.4-0.2-0.9-0.4-1.5-0.6c-0.9-0.2-2.1-0.4-3.4-0.4c0,0,0,0,0,0c-4.9,0-10.8,1.1-17.5,3.2c-6.9,2.2-15,5.6-24,10c0,0,0,0,0,0
			c-8.9,4.5-16.1,8.9-21.4,13.1c-4.9,3.9-8.3,7.7-9.7,11.1c-0.2,0.4-0.3,0.8-0.4,1.1c0.8,0.2,2.2,0.3,4.4,0.3c1,0,1.8,0.1,2.6,0.2
			c1,0.2,1.9,0.5,2.6,1c0.7,0.4,1.2,1,1.7,1.6c0.6,0.9,0.9,2,0.9,3.1c0,1.1-0.3,2.3-1,3.2c-0.7,1-1.8,1.9-3.1,2.4
			c-0.7,0.3-1.5,0.5-2.4,0.6c-4.9,1.4-9.1,1.3-12.9-0.3c-1.3-0.5-2.6-1.4-3.7-2.5c-0.9-1-1.8-2.1-2.5-3.4c-1.3-2.4-2-5.2-2-7.7
			c0-0.5,0-1,0.1-1.6c0.1-0.7,0.3-1.3,0.5-1.9c0.7-2.4,2-4.9,3.8-7.3c1.7-2.4,3.9-4.8,6.7-7.3c5.3-4.8,12.5-9.7,21.9-15.1
			c18.1-10.3,34.8-16.3,49.7-18c1.1-0.1,2-0.1,3.1-0.2c5.4,0,10.5,1.4,15.1,4.2c2.8,1.6,5.1,3.6,6.7,5.8c1.7,2.4,2.7,5.1,2.8,7.9
			c0,0.3,0,0.7,0,1c0,4.2-1,9.2-3.2,15.1c-2.1,5.7-5.1,12.2-9.2,19.9c-0.8,1.5-1.6,3-2.5,4.4l22.4-20.5c0.2-0.3,0.4-0.6,0.7-1
			c0.4-0.5,0.9-1.1,1.6-1.9c1-1.4,2.1-2.5,3.4-3.2c1.5-0.8,2.8-1,3.8-1c0.4,0,0.9,0,1.2,0.1l0.5,0.1c0,0,0.2,0,0.2,0.1
			c1.9,0.5,3.6,1.6,5.1,3.2c1.3,1.3,2.3,3,2.9,4.7c0.5,1.2,0.7,2.5,0.7,3.6c0,0.6-0.1,1.3-0.3,2c-0.2,0.8-0.5,1.5-0.9,2.1
			c-6,9.1-10.7,17.5-13.5,24.3c-2.9,7.3-4.4,14.4-4.5,21.8c0,0,0,0,0,0c0,0.5,0.1,0.8,0.2,1c0.1,0.3,0.3,0.5,0.6,0.8
			c0.3,0.2,0.8,0.5,1.6,0.8c0.8,0.3,1.8,0.4,2.9,0.4c0.4,0,0.9,0,1.2-0.1c2.1-0.2,5-1.3,8.3-3.1c3.7-2,8.2-5,13.3-8.8
			c10.4-7.8,19.4-16.4,26.8-25.8c4.1-5.2,7.3-10.2,9.5-14.7c2.1-4.3,3.2-8.3,3.4-11.7l0-0.8c0-2-0.2-3.8-0.6-5.3
			c-0.3-1.4-0.8-2.2-1.1-2.7c-0.6-0.6-1.1-1.2-1.5-1.9c-0.6-1.1-0.9-2.1-0.9-3.2c0-0.9,0.2-1.8,0.6-2.6c0.4-0.8,0.9-1.4,1.5-2
			c1.2-1,2.8-1.6,4.4-1.6c0,0,0,0,0,0c1.4,0,2.8,0.4,4.1,1.1c1,0.6,1.8,1.3,2.4,1.8c2.2,2,3.9,4.6,4.9,7.6c1,2.9,1.5,6.1,1.5,9.8
			c0,4.8-1.2,9.8-3.8,15.4l0,0c-2.4,5.3-6,10.9-10.8,17.2c-7.8,10.2-17.5,19.7-29.7,29c0,0-0.1,0-0.1,0.1c-6,4.5-11.3,8-16.2,10.5
			c-5.1,2.7-9.6,4.3-13.8,5.1c0,0-0.2,0-0.3,0l-0.4,0c0,0-0.1,0-0.1,0C126,176.6,124.8,176.7,123.5,176.7z M108,160.3
			c0.2,1.6,0.7,3.1,1.5,4.5c1.2,2.1,3.1,3.8,5.5,5c2.5,1.3,5.4,1.9,8.4,1.9c1,0,2-0.1,3.1-0.2c0,0,0.1,0,0.1,0l0.3,0
			c3.6-0.6,7.6-2.1,12.2-4.6c4.7-2.5,9.8-5.8,15.6-10.1c11.8-9,21.3-18.2,28.8-28.1c4.7-6,8-11.3,10.3-16.2l0,0
			c2.2-4.9,3.3-9.3,3.3-13.3c0-3.2-0.4-5.9-1.2-8.2c-0.8-2.2-2-4.1-3.6-5.6c-0.5-0.4-1-0.9-1.5-1.2c-0.6-0.3-1.1-0.5-1.7-0.5
			c0,0,0,0,0,0c-0.5,0-0.9,0.1-1.2,0.4c-0.1,0.1-0.2,0.3-0.3,0.4c-0.1,0.1-0.1,0.3-0.1,0.5c0,0.2,0.1,0.5,0.3,0.8
			c0.2,0.3,0.4,0.6,0.8,0.9c0.1,0.1,0.2,0.2,0.3,0.3c0.9,1.2,1.6,2.8,2.1,4.6c0.5,1.9,0.7,4,0.7,6.5c0,0.3,0,0.7,0,1
			c-0.2,4.2-1.5,8.8-3.9,13.7c-2.3,4.9-5.7,10.1-10.1,15.6c-7.6,9.7-16.9,18.6-27.7,26.7c-5.4,4-10.1,7.1-13.9,9.2
			c-4,2.1-7.3,3.4-9.9,3.6c-0.6,0.1-1.5,0.1-2.2,0.1c-1.4,0-2.8-0.2-4-0.6c-1.3-0.4-2.4-1-3.3-1.7c-0.8-0.7-1.5-1.5-1.9-2.4
			c-0.4-0.9-0.7-1.9-0.7-3c0,0,0-0.1,0-0.2l0,0c0.1-8.1,1.8-15.8,4.9-23.6c3-7.1,7.8-15.8,13.9-25c0.1-0.2,0.2-0.4,0.3-0.8
			c0.1-0.3,0.1-0.5,0.1-0.8c0-0.6-0.1-1.2-0.4-1.9c-0.4-1.1-1.1-2.1-1.9-3c-0.9-0.9-1.8-1.6-2.8-1.8l-0.2,0c-0.1,0-0.1,0-0.4,0
			c-0.3,0-0.9,0.1-1.4,0.4c-0.6,0.3-1.2,0.9-1.8,1.7c0,0.1-0.1,0.1-0.1,0.2c-0.7,0.8-1.2,1.4-1.5,1.9c-0.2,0.3-0.4,0.6-0.6,0.8
			c-0.1,0.2-0.3,0.4-0.4,0.5L86,141.3c-0.9,0.8-2.3,0.9-3.2,0.1c-0.9-0.8-1.1-2.2-0.5-3.2c4.1-6.3,7.8-12.5,11.3-19
			c4-7.4,6.9-13.7,8.9-19.2c1.9-5.4,2.9-9.8,2.9-13.5c0-0.3,0-0.5,0-0.8c-0.1-1.9-0.7-3.7-1.9-5.3c-1.2-1.7-2.9-3.1-5.1-4.4
			c-3.9-2.4-8.2-3.6-12.7-3.6c0,0,0,0,0,0c-0.8,0-1.7,0-2.5,0.1C68.9,74.1,52.8,80,35.3,89.9c-9.1,5.2-16,9.9-21,14.5
			c-2.5,2.2-4.5,4.4-6,6.5c-1.5,2-2.5,4.1-3.1,6c0,0.1-0.1,0.2-0.1,0.2c-0.1,0.3-0.2,0.6-0.2,0.8c0,0.4,0,0.7,0,1
			c0,1.7,0.5,3.7,1.5,5.4c0.5,0.9,1,1.6,1.6,2.3c0.6,0.6,1.3,1.1,2,1.4c2.9,1.2,5.9,1.2,9.8,0.1c0.1,0,0.2-0.1,0.3-0.1
			c0.6-0.1,1.1-0.2,1.4-0.4c0.4-0.2,0.7-0.4,0.9-0.6c0.1-0.2,0.1-0.4,0.1-0.4c0-0.2,0-0.3-0.1-0.4c-0.1-0.1-0.1-0.2-0.2-0.2
			c-0.2-0.1-0.5-0.2-0.9-0.3c-0.4-0.1-1-0.1-1.6-0.1c-2.3,0-4.3-0.2-5.8-0.5c-1.1-0.2-1.7-0.5-2.1-0.7c-0.1-0.1-0.3-0.2-0.4-0.3
			c-0.1,0-0.2-0.2-0.2-0.2c-0.2-0.2-0.4-0.5-0.7-1c-0.2-0.6-0.3-1.1-0.3-1.8c0-1.1,0.3-2.3,0.9-3.8c1.8-4.2,5.6-8.5,11.2-13
			c5.5-4.4,13-9,22.1-13.6c0,0,0.1,0,0.1,0c9.3-4.6,17.6-8.1,24.8-10.4c7.2-2.3,13.6-3.4,19-3.4c0,0,0,0,0,0c1.8,0,3.3,0.2,4.7,0.5
			c1,0.3,2,0.6,2.8,1.1c1.2,0.7,2.2,1.7,2.9,2.9c0.7,1.2,1.1,2.6,1.3,4.3c0,0.3,0.1,0.8,0.1,1.2c0,2.2-0.6,5.1-1.9,8.6
			c-2.3,6.3-6.7,14.8-13,25.3c-7.5,12.4-17.8,27.8-30.7,45.8l-0.1,0.3c0,0.1-0.1,0.3-0.2,0.6c-0.1,0.3-0.1,0.5-0.1,0.7
			c0,0.3,0.1,0.7,0.2,1c0.3,0.5,0.8,1,1.4,1.3c0.9,0.4,2,0.7,3.4,0.7c0.7,0,1.3-0.1,1.9-0.3c0.5-0.2,1-0.5,1.3-0.9
			c1.6-1.7,3.1-3.3,4.4-4.8c1.6-1.8,3.1-3.5,4.4-4.7l41.2-38.5c0.9-0.8,2.2-0.9,3.2-0.2c1,0.7,1.2,2,0.7,3.1
			c-5.6,10.9-8.5,21.3-8.5,30.8C107.9,157.4,107.9,158.7,108,160.3C108,160.2,108,160.3,108,160.3z M196.1,113.5L196.1,113.5
			L196.1,113.5z M357.5,175.3c-4.1,0-8.4-1.4-12.1-4c-2.3-1.6-4.1-3.4-5.5-5.5c-1.4-2.2-2.2-4.6-2.2-7c0-0.2,0-0.4,0-0.6
			c0-0.1,0-0.2,0-0.2c0.3-3.9,1.4-7.9,3.3-11.9c1.7-3.6,4.2-7.3,7.2-10.9c5.2-6.3,12.2-12.3,19.7-17c4.6-2.9,9-5.1,12.8-6.3
			c0.1,0,0.2-0.1,0.2-0.1c1.3-0.4,2.7-0.5,4-0.5c0,0,0,0,0,0c3.8,0,7.3,1.4,9.9,4c2.5,2.5,3.9,5.8,3.9,9.2l0,0
			c0,2.4-0.7,4.7-2.1,6.7c-0.9,1.3-2,2.5-3.5,3.6c-0.1,0.1-0.4,0.3-0.5,0.3c-4,2.1-7,3.6-10,4.7c-4.7,1.9-9.5,3.1-14.4,4.3
			c-0.6,0.1-1.1,0.2-1.6,0.3c-0.3,0-0.6,0.1-0.8,0.1c-0.2,0-0.5,0.1-0.7,0.1l-3.9,0c-2.1,2.4-3.8,4.5-5,6.5c-1.8,2.9-2.8,5.5-3,7.8
			c0,0.1,0,0.3,0,0.4c0,0.7,0.1,1.1,0.2,1.2c0.1,0.1,0.1,0.2,0.1,0.2c0,0,0.3,0.2,0.7,0.3c0.4,0.1,1.1,0.2,1.6,0.2
			c0.3,0,0.5,0,0.8,0c2.6-0.3,5.9-1,9.4-2c3.1-0.9,6.2-2.1,8.7-3.2c2.2-1.1,4.8-1.3,7-0.4c1,0.4,1.9,1.1,2.6,1.9
			c0.8,0.9,1.2,2.1,1.3,3.3c0,0,0,0.3,0,0.3c0,1.1-0.3,2.2-0.9,3.1c-0.6,1-1.6,1.9-2.8,2.5c-1.2,0.7-4.6,2.7-9.4,4.7
			c-4.7,1.9-9,3.2-12.9,3.7C359.1,175.3,358.3,175.3,357.5,175.3z M342.7,158.6l0,0.3c0,1.4,0.5,3,1.4,4.4c1,1.5,2.3,2.9,4.1,4.1
			c2.9,2,6.3,3.1,9.3,3.1c0.5,0,1.1,0,1.6-0.1c3.5-0.5,7.4-1.6,11.7-3.4c4.5-1.8,7.7-3.7,8.9-4.4c0.7-0.4,0.9-0.7,1-0.8
			c0.2-0.3,0.2-0.5,0.2-0.5c0-0.2-0.1-0.4-0.2-0.5c-0.2-0.2-0.4-0.4-0.6-0.5c-0.8-0.3-2-0.2-3,0.3c-2.8,1.2-6.1,2.4-9.4,3.4
			c-2.6,0.8-6.6,1.8-10.3,2.2c-0.5,0-0.8,0.1-1.2,0c-0.7,0-1.7,0-2.7-0.3c-1-0.2-1.9-0.6-2.6-1.2c-0.7-0.6-1.3-1.3-1.7-2.2
			c-0.4-0.9-0.5-1.9-0.5-3.1c0-0.2,0-0.5,0-0.8c0.2-3.1,1.5-6.5,3.7-10c1.5-2.4,3.6-5.1,6.3-8c0.5-0.5,1.1-0.8,1.8-0.8l4.7,0
			c0.4-0.1,0.7-0.1,1-0.2c0.4-0.1,0.8-0.1,1.2-0.2c4.7-1.1,9.3-2.3,13.7-4.1c2.8-1.1,5.6-2.5,9.3-4.4c1.1-0.9,1.8-1.7,2.4-2.5
			c0.9-1.2,1.3-2.5,1.3-3.9v0c0-2-0.9-4.1-2.5-5.7c-1.7-1.7-4-2.6-6.5-2.6c0,0,0,0,0,0c-0.9,0-1.9,0.1-2.8,0.4
			c-3.4,1.1-7.4,3.1-11.6,5.8c-7,4.5-13.6,10.2-18.5,16.1c-2.8,3.3-5,6.7-6.6,9.9C343.9,151.9,342.9,155.3,342.7,158.6
			C342.7,158.6,342.7,158.6,342.7,158.6z M391.7,133L391.7,133L391.7,133z M399,124.5L399,124.5L399,124.5z M278.9,174.1
			c-0.5,0-1.1,0-1.6-0.1c-1.5-0.1-3.1-0.5-4.6-1.2c-1.6-0.8-3-1.7-3.9-2.9c-1-1.3-1.5-2.7-1.5-4.2c0-0.6,0.1-1.2,0.3-1.8
			c0,0,0-0.1,0-0.1c1.4-5.1,4.1-10.5,8.1-16.6c3.9-5.9,8.9-12.3,15.4-19.5c0.7-0.8,1.7-1.5,2.9-2c1-0.4,2.1-0.6,3.3-0.6
			c2,0,3.7,0.4,5.1,1.3c0,0,0.1,0,0.1,0.1c1,0.6,1.8,1.5,2.4,2.5c0.6,1,0.9,2.2,0.9,3.4c0,0.8-0.2,1.7-0.5,2.4
			c-0.2,0.5-0.5,0.9-0.6,1.1l-0.1,0.2c-0.1,0.1-0.2,0.3-0.2,0.4c-4.1,5.2-7.5,9.9-10.1,14c2.4-2.4,4.7-4.9,6.6-6.9l14.4-15.9
			c0.1-0.2,0.1-0.4,0.2-0.6c0,0,0-0.1,0-0.1c0.3-1,0.8-2.7,1.6-4.5l0.1-0.3c0.1-0.2,0.3-0.5,0.4-0.6l0.9-1c0,0,0.2-0.2,0.2-0.2
			c0.2-0.2,0.3-0.3,0.5-0.4c0,0,0.2-0.1,0.2-0.1l1.4-0.8c2.3-1.4,3.9-2.3,5.4-3c1-0.4,1.8-0.6,2.8-0.6c0,0,0,0,0,0
			c0.9,0,1.7,0.1,2.7,0.5c0.7,0.2,1.4,0.5,2,0.9c1.3,0.7,2.2,1.5,2.7,1.9c0.2,0.2,0.3,0.3,0.5,0.5c0,0,0,0,0,0
			c0.5,0.6,0.9,1.2,1.2,1.9c0.3,0.7,0.5,1.5,0.5,2.3c0,0.8-0.2,1.7-0.6,2.5c-0.2,0.5-0.5,0.9-0.9,1.3c-1,1.1-1.6,1.9-2,2.5
			c0.3,0.3,0.5,0.5,0.7,0.8c0.7,1,1,2.2,1,3.4c0,1.2-0.3,2.5-1,3.5c-0.5,0.8-1.1,1.4-1.9,1.9c-0.7,0.5-1.5,0.8-2.3,1
			c-1.4,0.3-3.1,0.2-4.2,0c-0.1,0-0.2,0-0.3,0c-0.9-0.2-1.6-0.4-2.3-0.6c-3.4,3.9-7.8,8.4-13,13.4c-7.6,7.2-13.9,12.5-19.2,16.2
			c-0.9,0.6-1.8,1.3-2.8,1.8l-0.3,0.2c-0.2,0.1-0.5,0.2-0.8,0.3l-3.2,1.2c-0.1,0-0.3,0.1-0.5,0.1c-0.3,0.1-0.6,0.1-0.8,0.1
			c-0.5,0.2-1,0.4-1.7,0.6C281.4,174,280.2,174.1,278.9,174.1z M272.3,165c0,0.1,0,0.2-0.1,0.3c-0.1,0.2-0.1,0.3-0.1,0.4
			c0,0.4,0.2,0.8,0.5,1.2c0.5,0.6,1.2,1.1,2.1,1.5c0.9,0.4,1.9,0.7,2.8,0.7c1.7,0.1,2.7,0,3.5-0.2c0.6-0.2,1.1-0.4,1.5-0.5
			c0.2-0.1,0.5-0.2,0.7-0.2c0.2,0,0.4-0.1,0.6-0.1l3.4-1.3c0.1,0,0.2-0.1,0.2-0.1c0.8-0.4,1.5-0.9,2.2-1.4
			c5.2-3.6,11.3-8.7,18.7-15.8c5.7-5.4,10.3-10.2,13.8-14.2c0.7-0.8,1.8-1.1,2.7-0.7c0.8,0.3,1.8,0.6,3.3,0.9c0.6,0.1,1.5,0.2,2.2,0
			c0.3-0.1,0.5-0.2,0.8-0.3c0.2-0.1,0.4-0.3,0.5-0.5c0.1-0.1,0.2-0.4,0.2-0.8c0-0.2-0.1-0.5-0.2-0.6c-0.1-0.2-0.3-0.4-0.6-0.5
			c-0.4-0.2-0.6-0.4-0.7-0.5c-0.7-0.6-1.1-1.6-0.8-2.5c0.1-0.5,0.4-1.1,0.7-1.7c0.6-1.1,1.5-2.4,2.8-3.8c-0.4-0.1-0.8-0.4-1.1-0.7
			c-0.4-0.5-0.6-1.1-0.6-1.6c0-0.2,0-0.5,0.1-0.7c-0.1,0-0.1-0.1-0.2-0.1c-0.4-0.2-0.8-0.4-1.2-0.5c-0.4-0.1-0.8-0.2-1.1-0.2
			c-0.3,0.1-0.6,0-0.8,0.1c-1.3,0.6-2.7,1.4-4.8,2.7l-1.5,0.9l-0.5,0.6c-0.7,1.5-1.1,2.9-1.4,3.9c0,0,0,0,0,0.1
			c-0.1,0.3-0.2,0.6-0.3,0.9l-0.1,0.3c-0.1,0.3-0.3,0.6-0.5,0.8L304.4,147c-3.9,4.2-6.8,7.2-9.3,9.6c-3.2,3.1-5.9,5.4-7.9,6.7
			c-0.9,0.6-2,0.6-2.8-0.1c-0.8-0.6-1.2-1.7-0.9-2.6c0,0,0.1-0.2,0.1-0.3c1.1-3.2,3.1-7,5.9-11.5c2.8-4.4,6.5-9.6,10.9-15.2l0.1-0.2
			c0,0,0.1-0.1,0.1-0.2c0.1-0.1,0.2-0.2,0.3-0.4c0-0.1,0.1-0.2,0.1-0.4c0-0.4-0.1-0.7-0.3-1c-0.2-0.3-0.4-0.6-0.8-0.8
			c-0.1,0-0.1-0.1-0.2-0.1c-0.6-0.3-1.4-0.5-2.4-0.5c-0.6,0-1.1,0.1-1.6,0.3c-0.4,0.1-0.7,0.4-0.9,0.6c-6.4,7-11.2,13.2-15,18.9
			C276.1,155.5,273.7,160.4,272.3,165z M204.3,164.3c-0.5,0-0.9-0.1-1.2-0.2c-0.4-0.1-0.8-0.4-1.1-0.7c-0.5-0.6-0.8-1.6-0.8-2.8
			c0-1.1,0.2-2.2,0.7-3.1c3.1-5.6,7.9-11.4,14.5-17.2c7.3-6.4,13.1-10.1,17.9-11c1.2-0.2,2.3-0.4,3.4-0.4c3.6,0,6.5,1.4,7.1,3.5
			c0.3,0.9,0,1.9-0.6,2.5c-14.5,13.8-26.8,23.2-37.6,28.7c0,0,0,0-0.1,0C205.7,164.1,204.9,164.3,204.3,164.3
			C204.3,164.3,204.3,164.3,204.3,164.3z M205.4,161.5L205.4,161.5L205.4,161.5z M237.6,133.8c-0.8,0-1.5,0.1-2.5,0.3
			c-2.7,0.5-7.6,2.7-15.7,9.9c-5.3,4.7-9.3,9.3-12.1,13.6c9-5.1,19.1-12.9,30.7-23.7C238,133.8,237.8,133.8,237.6,133.8z
			 M365.7,137.4c-1,0-1.9-0.6-2.3-1.5c-0.4-1-0.1-2.2,0.7-2.9c6.8-5.6,13-9.7,18.3-12.1c1.1-0.5,4.8-1.9,6.8-0.2
			c1.3,1.1,1.8,3.6-0.9,6.9c0,0,0,0,0,0c-3.8,4.6-12.8,8.5-22.3,9.8C365.9,137.4,365.8,137.4,365.7,137.4z M382.5,126.3
			c-1.4,0.7-2.9,1.6-4.5,2.6C379.7,128.1,381.3,127.2,382.5,126.3z M386.4,126L386.4,126L386.4,126z"/>
	</g>
	<path class="st3" d="M196.1,113.5c2.4-5.1,3.6-9.9,3.6-14.4c0-3.4-0.4-6.4-1.4-9c-0.9-2.6-2.4-4.8-4.3-6.6l0,0l0,0
		c-0.5-0.5-1.2-1.1-2-1.5c-0.8-0.5-1.8-0.8-2.9-0.8c-1.1,0-2.1,0.4-2.8,1c-0.4,0.3-0.7,0.7-0.9,1.2c-0.2,0.5-0.4,1-0.4,1.5
		c0,0.7,0.2,1.4,0.6,2c0.3,0.6,0.7,1,1.2,1.5c0.7,0.9,1.3,2.1,1.6,3.7c0.4,1.6,0.6,3.6,0.6,5.9c0,0.3,0,0.6,0,1
		c-0.2,3.8-1.4,8-3.6,12.7c-2.2,4.7-5.5,9.7-9.8,15.2c-7.5,9.5-16.7,18.3-27.2,26.2c-5.3,4-9.9,7-13.6,9c-3.8,2.1-6.8,3.1-9,3.4l0,0
		l0,0c-0.5,0.1-1.3,0.1-1.9,0.1c-1.2,0-2.3-0.2-3.3-0.5c-1-0.3-1.8-0.7-2.4-1.2c-0.6-0.5-1-1-1.3-1.6c-0.3-0.6-0.4-1.2-0.4-2l0-0.2
		l0,0v0c0.1-7.7,1.7-15.1,4.7-22.7c2.9-6.9,7.6-15.4,13.6-24.6l0,0l0,0c0.3-0.5,0.5-1,0.6-1.5c0.1-0.5,0.2-0.9,0.2-1.4
		c0-0.9-0.2-1.9-0.5-2.8c-0.5-1.4-1.3-2.7-2.4-3.8c-1.1-1.1-2.4-2.1-3.9-2.5l0,0l0,0l-0.3-0.1l0,0l0,0c-0.2,0-0.5-0.1-0.8-0.1
		c-0.8,0-1.7,0.2-2.6,0.7c-0.9,0.5-1.8,1.3-2.6,2.5c-0.7,0.8-1.2,1.4-1.6,2c-0.3,0.4-0.6,0.7-0.8,1.1l-26,23.8l0,0l-9.5,8.7
		c4.2-6.3,7.9-12.7,11.4-19.1l0,0l0,0c4-7.5,7-13.9,9-19.5c2-5.6,3-10.3,3-14.3c0-0.3,0-0.6,0-0.9c-0.1-2.4-0.9-4.6-2.3-6.6
		c-1.4-2-3.4-3.7-5.9-5.1l0,0l0,0l0,0l0,0c-4.2-2.6-8.9-3.9-13.9-3.9c-0.9,0-1.8,0-2.8,0.1l0,0l0,0c-14.6,1.6-31,7.6-48.8,17.7l0,0
		h0C25,93,17.9,97.8,12.7,102.5c-2.6,2.3-4.7,4.6-6.3,6.9c-1.6,2.2-2.8,4.5-3.4,6.7c-0.2,0.5-0.3,1-0.4,1.5
		c-0.1,0.5-0.1,0.9-0.1,1.3c0,2.2,0.6,4.5,1.7,6.6c0.6,1,1.2,2,2,2.8c0.8,0.8,1.7,1.5,2.8,2l0,0l0,0l0,0l0,0
		c1.7,0.7,3.6,1.1,5.6,1.1c1.8,0,3.8-0.3,5.8-0.9c0.8-0.1,1.4-0.3,2-0.5c0.9-0.4,1.6-0.9,2-1.5c0.4-0.6,0.6-1.3,0.6-1.8
		c0-0.6-0.2-1.2-0.5-1.7c-0.2-0.4-0.6-0.7-0.9-0.9c-0.5-0.4-1.1-0.6-1.8-0.7c-0.6-0.1-1.3-0.2-2.1-0.2c-2.5,0-4.2-0.2-5.2-0.5
		c-0.9-0.2-1.3-0.4-1.4-0.5l-0.1-0.1c-0.1-0.1-0.1-0.1-0.2-0.3c-0.1-0.1-0.1-0.4-0.1-0.8c0-0.6,0.2-1.5,0.7-2.8
		c1.6-3.7,5.1-7.7,10.5-12c5.4-4.3,12.7-8.8,21.8-13.4l0,0l0,0c9.2-4.6,17.4-8,24.5-10.2c7.1-2.2,13.2-3.3,18.2-3.3
		c1.6,0,2.9,0.2,4,0.4c0.8,0.2,1.5,0.5,2.1,0.9c0.9,0.5,1.5,1.2,2,2.1c0.5,0.9,0.9,2,1,3.4l0,0l0,0c0,0.3,0.1,0.6,0.1,0.9
		c0,1.6-0.5,4.1-1.8,7.8c-2,5.5-5.9,13.4-12.8,24.9c-6.9,11.4-16.7,26.3-30.7,45.7l-0.1,0.1l0,0.1l-0.2,0.3l0,0.1l0,0.1
		c-0.1,0.3-0.2,0.6-0.3,1c-0.1,0.4-0.2,0.8-0.2,1.3c0,0.7,0.1,1.4,0.5,2c0.5,1,1.4,1.9,2.6,2.5c1.2,0.6,2.7,0.9,4.5,0.9
		c1,0,1.9-0.2,2.8-0.5c0.9-0.3,1.6-0.8,2.2-1.5l0,0c1.7-1.8,3.2-3.5,4.6-5l0,0l0,0c1.6-1.8,3-3.3,4.2-4.4l41.2-38.4
		c-5.8,11.2-8.7,21.9-8.7,31.9c0,1.7,0,3.1,0.2,4.8l0,0l0,0c0.2,2,0.8,3.9,1.8,5.6c1.5,2.5,3.7,4.6,6.5,6c2.8,1.4,6,2.2,9.6,2.2
		c1.2,0,2.3-0.1,3.4-0.2l0,0l0,0l0.4,0l0.1,0l0.1,0c3.9-0.7,8.3-2.3,13-4.8c4.8-2.5,10.1-6,15.9-10.4l0,0l0,0
		c12-9.1,21.6-18.5,29.3-28.6h0C190.2,124.2,193.7,118.7,196.1,113.5z M266.8,173.9c-0.3-0.7-0.8-1.3-1.3-1.7
		c-0.6-0.4-1.3-0.7-2-0.7c-0.4,0-0.9,0.1-1.3,0.3v0c-0.6,0.3-1.1,0.7-1.5,1.2c-0.3,0.5-0.6,1-0.8,1.5c-0.5,0.8-1.3,1.7-2.4,2.6
		c-1.2,0.9-2.7,1.8-4.6,2.6c-1.3,0.5-2.4,0.9-3.5,1.2l0,0l0,0c-3,0.8-6.4,1.3-9.6,1.3c-1.5,0-2.8-0.1-3.8-0.4
		c-0.8-0.2-1.5-0.4-2-0.7c-0.8-0.4-1.3-0.9-1.7-1.5c-0.3-0.6-0.5-1.3-0.5-2.3c0-0.7,0-1.2,0.1-1.8c0.9-4.6,2.1-8.3,4.1-12.1
		c2-3.9,4.7-8,8.6-13.3c4-5.3,8.4-10.7,12.6-15.9l4.3-5.3l0.1-0.1l0.1-0.1l0.2-0.4l0.1-0.1l0-0.1c0.2-0.4,0.2-0.8,0.2-1.2
		c0-0.8-0.2-1.4-0.5-1.8c-0.3-0.5-0.5-0.8-0.7-1l0,0l0,0c-1-1.1-2.4-1.7-3.8-1.7c-0.5,0-1.1,0.1-1.6,0.2c-0.6,0.2-1.2,0.4-1.7,0.8
		l0,0l0,0c-0.2,0.1-0.4,0.3-0.7,0.4c-0.3,0.1-0.7,0.2-1.3,0.3l0,0c-0.1,0-0.2,0-0.3,0c-0.2,0-0.5,0-0.7-0.1l0,0l0,0l-0.5,0
		c-2.3-0.6-5-1.1-7.8-1.1c-2.8,0-5.2,0.6-7.2,1.1l0,0l0,0c-8.7,2.8-18.2,8.3-28.3,16.3l0,0l0,0c-5.9,4.7-10.3,9-13.3,13
		c-1.5,2-2.6,3.9-3.4,5.8c-0.8,1.9-1.2,3.7-1.2,5.5c0,1.5,0.3,2.7,0.8,3.8c0.4,0.8,0.9,1.4,1.4,1.9c0.8,0.8,1.8,1.2,2.7,1.5
		c0.9,0.2,1.8,0.3,2.5,0.3c2.2,0,3.9-0.7,5.2-1.3l0,0c6.6-3.1,14.1-7.5,23.1-13.6l0,0l0,0c1.8-1.3,3.6-2.5,5.2-3.7
		c-2.6,4.7-4.5,8.1-5.7,11.4c-1.2,3.3-1.8,6.3-1.9,10l0,0l0,0c0,0.2,0,0.5,0,0.7c0,2.6,0.6,5,1.7,7c1.2,2,2.9,3.5,5.1,4.6l0,0l0,0
		l0,0l0,0c4.3,2.3,9,3.5,13.7,3.5c3.1,0,6.4-0.3,9.7-1.3l3.4-0.7l0.2,0l0.1-0.1c2.7-1.2,4.9-2.6,6.7-4.2c1.8-1.7,3-3.6,3.8-5.8h0
		l0,0l0,0h0c0.3-0.7,0.5-1.7,0.5-2.7C267.2,175.4,267.1,174.6,266.8,173.9z M205.4,161.5c-0.5,0.2-1,0.3-1.1,0.3c-0.2,0-0.3,0-0.4,0
		c0,0-0.2-0.3-0.2-1.2c0-0.8,0.2-1.5,0.4-2.1c2.9-5.2,7.5-10.8,13.9-16.4c6.8-6.1,12.5-9.6,16.8-10.4c1.1-0.2,2-0.3,2.9-0.3
		c2.9,0,4.6,1.1,4.8,1.8C228.1,146.8,216,156.1,205.4,161.5z M335,121l-1.2,1.1L335,121c-0.1-0.1-0.2-0.2-0.3-0.3
		c-0.5-0.4-1.2-1-2.2-1.6c-0.5-0.3-1-0.5-1.6-0.7c-0.6-0.2-1.2-0.3-1.9-0.3c-0.6,0-1.1,0.1-1.7,0.3l0,0l0,0c-1.5,0.6-3,1.6-5.2,2.9
		l0,0l0,0l-1.4,0.8l-0.2,0.1l-0.2,0.2l-0.7,0.8l-0.2,0.2l-0.1,0.2c-0.8,1.7-1.2,3.3-1.6,4.3l0,0l0,0c-0.1,0.3-0.2,0.6-0.3,0.9
		c0,0.1-0.1,0.2-0.1,0.3l-0.2,0.2l-14.6,16.1c-3.1,3.3-6.3,6.7-9.2,9.5c-2.9,2.8-5.5,5.1-7.5,6.5l0-0.1c1-2.9,2.9-6.6,5.6-11
		c2.7-4.4,6.3-9.4,10.8-15l0.1-0.1l0.1-0.1l0.2-0.3l0,0c0.1-0.1,0.3-0.4,0.4-0.8c0.2-0.4,0.3-0.8,0.3-1.4c0-0.8-0.2-1.6-0.6-2.2
		c-0.4-0.7-0.9-1.2-1.6-1.6l0,0l0,0c-1.1-0.7-2.4-1-3.9-1c-0.9,0-1.7,0.1-2.5,0.4c-0.7,0.3-1.4,0.7-1.9,1.3l0,0
		c-6.3,7-11.4,13.4-15.2,19.2c-3.8,5.8-6.4,11.1-7.8,15.9l0,0c-0.1,0.4-0.2,0.8-0.2,1.2c0,1,0.4,1.9,1,2.7c0.8,1,1.8,1.7,3,2.2
		c1.2,0.5,2.4,0.9,3.7,0.9v0l0,0l0,0v0c0.5,0,1,0.1,1.4,0.1c1,0,2-0.1,2.8-0.3l0,0l0,0c0.8-0.2,1.3-0.5,1.8-0.6
		c0.3,0,0.6-0.1,0.8-0.1l0.1,0l0.1,0l3.5-1.3l0.2,0l0.3-0.2c0.9-0.5,1.7-1,2.6-1.6c5.2-3.6,11.4-8.8,18.9-15.9
		c5.8-5.5,10.4-10.3,13.9-14.4c1.1,0.4,2.2,0.7,3.6,1l0,0l0,0c0.5,0.1,1.1,0.2,1.8,0.2c0.5,0,1,0,1.5-0.2c0.5-0.1,1-0.3,1.5-0.7
		c0.4-0.3,0.8-0.6,1.2-1.2c0.4-0.6,0.6-1.3,0.6-2.2c0-0.7-0.2-1.4-0.6-2c-0.4-0.5-0.9-1-1.5-1.3l0,0c-0.2-0.1-0.3-0.2-0.3-0.2
		c0-0.2,0.2-0.5,0.5-1.1c0.5-0.8,1.3-2,2.8-3.7l0,0c0.2-0.2,0.4-0.4,0.5-0.8c0.2-0.4,0.3-0.9,0.3-1.4c0-0.4-0.1-0.9-0.3-1.3
		C335.6,121.8,335.4,121.4,335,121z M396.5,124.5c0-2.7-1.1-5.3-3.2-7.4l0,0c-2.2-2.2-5.1-3.3-8.2-3.3c-1.1,0-2.3,0.2-3.4,0.5l0,0
		l0,0c-3.6,1.2-7.8,3.3-12.2,6.1c-6.6,4.2-13.6,10-19.1,16.6c-2.7,3.3-5.1,6.8-6.9,10.4c-1.8,3.6-2.9,7.4-3.1,11.2v0l0,0
		c0,0.1,0,0.3,0,0.4c0,2,0.6,3.9,1.8,5.7c1.1,1.8,2.8,3.4,4.8,4.8c3.3,2.3,7.2,3.5,10.7,3.6c0.7,0,1.3-0.1,2-0.2v0l0,0l0,0
		c4.1-0.6,8.4-1.9,12.2-3.5c3.8-1.6,7.1-3.3,9.2-4.6l0,0c0.8-0.4,1.5-1,1.9-1.7c0.4-0.7,0.5-1.3,0.5-1.8c0-0.1,0-0.1,0-0.2v0v0
		c0-0.7-0.3-1.4-0.7-1.9c-0.4-0.5-1-0.9-1.6-1.2c-0.6-0.3-1.3-0.4-2-0.4c-1,0-2.1,0.3-3,0.8l0,0c-2.4,1.1-5.6,2.3-9,3.3
		c-3.3,1-6.9,1.8-9.9,2.1c-0.3,0-0.6,0-0.9,0c-0.7,0-1.5-0.1-2.1-0.2c-0.7-0.2-1.3-0.4-1.7-0.7c-0.4-0.3-0.7-0.7-0.9-1.2
		c-0.2-0.5-0.3-1.2-0.3-2.1c0-0.2,0-0.4,0-0.6c0.2-2.9,1.5-6,3.3-8.9c1.7-2.7,3.9-5.3,6-7.7c1.5,0,3.1,0,4.8,0h0.2l0.2,0
		c0.7-0.1,1.5-0.2,2.3-0.4c4.7-1.1,9.4-2.3,14.1-4.2c3.3-1.3,6.5-2.9,9.6-4.5l0.1-0.1l0.1-0.1c1.2-0.9,2.2-2,3-3.1l0,0l0,0l0,0l0,0
		C396,128.2,396.5,126.3,396.5,124.5z M386.4,126c-3.5,4.2-12.1,7.8-20.7,8.9c6.6-5.4,12.7-9.5,17.8-11.8c2.2-1,3.7-0.9,4.1-0.6
		C388,122.9,388,124.1,386.4,126z"/>
	<g>
		<path class="st0" d="M208.8,29.3H238h0.5l-0.2-0.4l-8.8-16.3l-0.1-0.2h-0.2h-29.3h-0.5l0.2,0.4l8.8,16.3l0.1,0.2H208.8z
			 M199.9,12.9h29.3l-0.3-0.2l8.8,16.3l0.3-0.4h-29.3l0.3,0.2l-8.8-16.3L199.9,12.9z"/>
		<polygon class="st0" points="232.2,17.5 229.4,12.4 199.4,12.4 202.2,17.5 		"/>
		<polygon class="st0" points="238.5,29.3 235.7,24.1 205.8,24.1 208.6,29.3 		"/>
		<g>
			<polygon class="st0" points="215.2,18.2 215.1,18.8 214.4,18.8 215.1,19.1 215.1,19.7 215.6,19.3 216.3,19.7 215.9,19.1 
				216.4,18.8 215.6,18.8 			"/>
			<polygon class="st0" points="220.7,19.7 221.2,19.3 222,19.7 221.5,19.1 222,18.8 221.2,18.8 220.8,18.2 220.7,18.8 220,18.8 
				220.7,19.1 			"/>
			<polygon class="st0" points="219.1,20.6 218.6,20.1 218.6,20.6 217.8,20.6 218.6,21 218.5,21.5 219.1,21.2 219.8,21.5 219.4,21 
				219.9,20.6 			"/>
			<polygon class="st0" points="216.8,22.5 216.4,21.9 216.3,22.5 215.5,22.5 216.3,22.8 216.2,23.4 216.7,23.1 217.5,23.4 
				217.1,22.8 217.6,22.5 			"/>
			<polygon class="st0" points="222.7,22.5 222.3,21.9 222.2,22.5 221.5,22.5 222.2,22.8 222.2,23.4 222.7,23.1 223.5,23.4 
				223,22.8 223.5,22.5 			"/>
		</g>
	</g>
</g>
</svg>
