<svg xmlns="http://www.w3.org/2000/svg" width="25" height="25" viewBox="0 0 25 25"><defs><style>.a{fill:none;}.b{fill:#0171ce;}</style></defs><path class="a" d="M0,0H25V25H0Z"/><path class="b" d="M8.333,10.208H5.208V7.083H3.125v3.125H0v2.083H3.125v3.125H5.208V12.292H8.333ZM18.75,11.25a3.125,3.125,0,1,0-.948-6.1,5.14,5.14,0,0,1,.938,2.979A5.241,5.241,0,0,1,17.8,11.1,3.114,3.114,0,0,0,18.75,11.25Zm-5.208,0a3.125,3.125,0,1,0-3.125-3.125A3.112,3.112,0,0,0,13.542,11.25Zm6.9,2.25a3.854,3.854,0,0,1,1.438,2.958v2.083H25V16.458C25,14.854,22.531,13.865,20.437,13.5Zm-6.9-.167c-2.083,0-6.25,1.042-6.25,3.125v2.083h12.5V16.458C19.792,14.375,15.625,13.333,13.542,13.333Z" transform="translate(0 0.208)"/></svg>